
<svg viewBox="0 0 480 120" xmlns="http://www.w3.org/2000/svg">
  <!-- Left chevron -->
  <path d="M 12 24 L 36 60 L 12 96 L 24 96 L 48 60 L 24 24 Z" fill="white"/>
  <!-- Right chevron -->
  <path d="M 36 24 L 60 60 L 36 96 L 48 96 L 72 60 L 48 24 Z" fill="white"/>
  <!-- SYNCRATE text -->
  <text x="90" y="78" font-family="system-ui, -apple-system, sans-serif" font-size="56" font-weight="700" fill="white" letter-spacing="1.5">SYNCRATE</text>
</svg>
	C647.348511,533.936462 647.673035,538.968201 648.198303,544.768982 
	C652.464722,544.845154 656.731140,544.921326 661.666138,544.890381 
	C662.340637,544.036621 663.593811,543.180847 663.590698,542.329529 
	C663.576294,538.356873 663.314636,534.375000 662.899475,530.421814 
	C662.809082,529.561096 661.725403,528.804749 660.939636,527.177002 
	C660.992432,525.784607 661.045227,524.392273 661.805054,522.850647 
	C666.123230,518.818787 671.788086,518.674255 673.797241,522.635681 
	C675.618469,526.226562 677.064941,530.019470 679.060608,533.503357 
	C679.735413,534.681519 681.584595,535.187012 683.098877,536.344604 
	C683.098877,536.344604 683.093994,536.744080 683.223999,537.243774 
	C683.452393,537.493347 683.680847,537.742859 684.131836,538.307922 
	C684.131836,538.307922 684.112061,538.693542 684.050659,539.502380 
	C684.767395,540.622864 685.484070,541.743347 686.101501,542.906189 
	C686.101501,542.906189 686.140564,542.805542 686.152771,543.612671 
	C688.939514,546.858826 697.975159,547.103577 701.316772,543.818115 
	C701.316772,543.818115 701.682495,543.882874 702.386841,543.934875 
	C702.948853,543.207275 704.156677,542.152283 703.978210,541.800110 
	C699.800110,533.557678 695.472107,525.391296 691.053162,516.985413 
	C693.961853,514.596985 696.677246,512.367249 699.688599,509.894562 
	C699.267151,508.960236 698.741943,507.795807 698.306580,506.362030 
	C698.306580,506.362030 698.553467,506.221924 699.252686,506.541046 
	C700.752502,503.267303 702.919556,500.116913 703.554382,496.683258 
	C704.127869,493.581451 702.546814,490.136658 702.771118,486.902435 
	C703.148193,481.464905 698.437622,478.988739 696.466736,474.959686 
	C696.276550,474.571045 694.217468,475.096710 692.382935,474.975311 
	C690.252808,473.933868 688.122742,472.892426 685.826843,471.179016 
	C685.086975,471.106201 684.347107,471.033386 682.743835,470.939972 
	C682.614075,470.683014 682.484314,470.426056 682.836914,470.186310 
M241.744797,548.753723 
	C241.744797,548.753723 241.418564,548.881165 240.760941,548.516724 
	C240.190201,549.393555 239.619446,550.270386 238.831818,551.751953 
	C237.268311,553.182922 235.704788,554.613892 233.369583,556.032410 
	C232.596207,557.070984 231.822830,558.109619 230.813812,559.765137 
	C228.258316,562.192444 225.702820,564.619690 222.368576,567.037842 
	C221.870438,567.833984 221.372284,568.630127 220.742126,569.762207 
	C220.742126,569.762207 220.405029,569.891418 219.772583,569.489929 
	C216.120010,570.202820 214.162949,572.376953 213.939941,576.598022 
	C213.768219,576.906128 213.506027,577.057190 212.375793,577.030701 
	C211.264725,578.396851 210.153656,579.763062 208.875168,581.671143 
	C208.294769,582.128601 207.714355,582.586060 206.356674,583.038635 
	C205.866409,583.835205 205.376129,584.631714 204.750046,585.769714 
	C204.750046,585.769714 204.405548,585.897705 203.774292,585.491516 
	C200.113770,586.199402 198.163574,588.380676 197.848541,592.713379 
	C196.945221,593.490479 196.041901,594.267517 194.371277,595.024170 
	C191.231247,595.288879 189.903687,597.089172 189.808105,600.752319 
	C186.916565,603.516113 184.025024,606.279968 180.368088,609.025940 
	C177.242142,609.291504 175.914215,611.086182 175.846268,614.673218 
	C175.242767,615.412354 174.639282,616.151489 174.112854,617.553467 
	C175.085083,617.676086 176.057312,617.798767 177.919479,617.795227 
	C180.612381,617.861267 183.305298,617.927246 186.599609,618.571960 
	C196.075333,619.026917 205.548584,619.602112 215.029663,619.796753 
	C216.329819,619.823425 217.668854,617.957214 219.293945,616.379578 
	C221.579178,614.265930 223.864426,612.152283 226.882263,609.973938 
	C228.107956,608.503845 229.333633,607.033752 230.995468,606.000000 
	C230.851151,605.853699 230.706833,605.707336 231.265411,605.720886 
	C231.859787,604.877197 232.454163,604.033569 233.258057,602.660767 
	C233.570435,602.460754 233.882797,602.260742 234.818665,602.347290 
	C239.533371,603.621948 238.012115,599.715210 238.812607,597.807434 
	C238.812607,597.807434 238.660980,597.712585 239.431549,597.800476 
	C240.243988,596.717712 241.056412,595.634949 242.092880,594.000854 
	C243.274231,592.961670 244.455566,591.922485 246.467590,590.927551 
	C247.269669,589.813049 248.071762,588.698608 249.141129,586.999023 
	C260.912964,575.323303 272.690247,563.653076 284.455292,551.970642 
	C298.565094,537.959778 312.664429,523.938477 327.469269,509.961487 
	C327.887756,509.265289 328.306244,508.569092 328.857361,507.244537 
	C329.240295,506.495819 329.623230,505.747101 330.653046,504.899139 
	C330.483063,503.935974 330.313080,502.972778 329.934845,501.385651 
	C329.895386,500.950470 329.855957,500.515259 330.304321,499.729706 
	C329.818420,499.169861 329.332520,498.610046 328.228027,497.801117 
	C313.456512,482.952972 298.684998,468.104797 283.811218,452.431061 
	C276.982147,452.283600 270.153107,452.132050 263.323364,452.027893 
	C263.221252,452.026337 263.110168,452.613159 262.483215,453.354279 
	C261.038574,454.696594 259.567108,456.011322 258.153656,457.385712 
	C248.367767,466.900909 238.593964,476.428528 228.143112,486.053833 
	C225.242920,486.590790 226.067993,487.994171 227.825211,488.663055 
	C229.945694,489.470245 232.326706,489.924408 234.599976,489.943848 
	C247.097992,490.050751 259.597565,489.977966 272.708130,490.173920 
	C274.155823,491.730896 275.603485,493.287903 277.027954,495.625671 
	C277.494598,498.046051 278.070557,500.328552 281.769135,499.238037 
	C281.769135,499.238037 281.905426,499.582153 281.494476,500.263000 
	C282.014526,502.562683 282.534607,504.862396 282.951782,507.619720 
	C282.772644,507.917236 282.509491,508.061890 281.382233,508.031433 
	C280.270416,509.402100 279.158600,510.772766 277.881744,512.683350 
	C277.303650,513.137878 276.725555,513.592468 275.376373,514.031921 
	C274.598877,515.066040 273.821350,516.100098 272.934784,517.596375 
	C272.757019,517.899841 272.492310,518.049316 271.365936,518.027649 
	C270.266876,519.389099 269.167786,520.750549 268.028320,522.027893 
	C268.028320,522.027893 268.112396,522.068359 267.351471,522.031921 
	C264.556732,522.745239 261.977631,523.637329 262.753479,527.750732 
	C262.753479,527.750732 262.422821,527.882019 261.765137,527.516479 
	C261.192169,528.391174 260.619202,529.265869 259.938080,530.601562 
	C259.757599,530.900940 259.492554,531.048889 258.383087,531.022400 
	C254.909348,531.590942 253.026505,533.543091 252.945496,537.611816 
	C252.768036,537.911377 252.505249,538.057922 251.396179,538.026184 
	C247.921051,538.588623 246.032227,540.536499 245.885605,544.687073 
	C245.311066,545.142151 244.736526,545.597168 243.380463,546.038391 
	C242.879456,546.835449 242.378448,547.632507 241.744797,548.753723 
M526.916199,501.077179 
	C526.916199,501.077179 526.883240,501.170624 526.938354,500.419250 
	C526.227539,499.634796 525.516724,498.850372 524.203247,497.782501 
	C523.292969,496.263123 522.382751,494.743774 522.081726,492.853760 
	C521.194519,491.950317 520.307312,491.046875 518.996460,489.658905 
	C515.956055,484.948303 512.915649,480.237701 509.932037,474.669861 
	C510.148010,472.404327 509.671448,470.737427 506.936981,471.068298 
	C506.936981,471.068298 506.903900,471.158417 506.795441,470.358826 
	C502.553375,469.645386 498.314911,468.908447 494.063049,468.259277 
	C493.687378,468.201904 493.175446,468.661407 492.809540,468.976807 
	C490.265747,471.169495 490.298615,479.110199 492.996063,482.739044 
	C492.945404,483.494781 492.894745,484.250488 492.220551,485.122620 
	C492.428284,486.079559 492.636017,487.036530 492.995972,488.910095 
	C492.945343,492.942169 492.894745,496.974274 492.131104,501.197601 
	C490.514374,503.657623 489.873077,506.015381 492.995911,508.820374 
	C492.945496,510.215454 492.895111,511.610535 492.086609,513.230957 
	C491.750092,513.759766 491.125061,514.285950 491.120178,514.817749 
	C491.041565,523.394531 490.990509,531.972656 491.106720,540.548218 
	C491.117889,541.372070 492.281189,542.180298 493.227478,543.367859 
	C493.438721,543.624023 493.694061,543.823853 494.189636,544.743103 
	C498.263641,546.403625 502.302216,547.552917 506.344543,543.480591 
	C506.578156,542.985901 506.811768,542.491150 507.681671,541.882874 
	C507.972473,541.210449 508.505493,540.542358 508.517792,539.864868 
	C508.711029,529.249023 508.780273,518.630554 509.027161,508.016205 
	C509.075897,505.921326 509.749359,503.841003 510.835907,501.878479 
	C518.906616,513.874878 526.977295,525.871216 534.858093,538.440979 
	C535.428040,538.912537 535.997986,539.384094 536.971375,540.299133 
	C537.978394,541.526794 538.985413,542.754517 540.577332,544.559509 
	C544.389404,544.358215 548.201538,544.156982 552.419006,543.555420 
	C552.633362,543.033447 552.847717,542.511475 553.614197,541.370239 
	C553.738647,540.725647 553.971252,540.081177 553.971924,539.436462 
	C553.993286,518.201233 554.007996,496.965942 553.955261,475.730804 
	C553.952209,474.490540 553.377197,473.251709 552.900696,471.630890 
	C552.900696,471.630890 552.926575,471.215118 552.827148,470.426666 
	C548.401855,469.895447 543.977966,469.350403 539.542175,468.929138 
	C539.450562,468.920441 539.222595,470.346863 539.026123,471.025208 
	C539.026123,471.025208 539.104919,471.056641 538.302002,471.202393 
	C537.882080,471.850159 537.103027,472.494385 537.096558,473.146271 
	C537.009521,481.922791 536.980225,490.701141 537.103577,499.476654 
	C537.115479,500.324005 538.239258,501.155701 539.000244,502.873932 
	C538.949463,505.251068 538.898682,507.628204 538.173523,510.151886 
	C537.023499,511.171967 535.873413,512.192017 534.850525,513.132935 
	C534.850525,513.132935 534.779846,513.265015 534.899597,512.496338 
	C533.658386,511.000977 532.417236,509.505585 530.806519,507.476471 
	C530.178772,506.392639 529.551025,505.308807 528.956604,503.467804 
	C528.245483,502.682312 527.534363,501.896820 526.916199,501.077179 
M188.676636,494.958252 
	C189.438431,493.933868 190.200226,492.909485 191.183777,491.278992 
	C192.752457,489.840027 194.321136,488.401062 196.402817,487.146973 
	C196.926178,486.405334 197.449539,485.663666 198.097961,484.443207 
	C198.288895,484.133606 198.566223,483.978455 199.591171,483.978516 
	C200.039978,483.311005 200.488785,482.643463 201.164627,481.338440 
	C212.143875,470.669312 223.195068,460.072998 234.086624,449.315094 
	C253.729919,429.912872 273.277710,410.413940 293.686462,390.980103 
	C294.766541,390.268036 295.846619,389.555939 296.926666,388.843842 
	C296.118164,387.803070 295.512390,386.276001 294.453949,385.834778 
	C292.839935,385.161926 290.918213,385.087585 289.117828,385.024536 
	C278.511658,384.653137 267.901031,384.104980 257.295746,384.177124 
	C253.628525,384.202087 249.820999,385.473389 246.389481,386.916931 
	C245.116409,387.452454 244.737137,390.112640 243.669800,392.418427 
	C241.704346,394.260834 239.738876,396.103210 237.063736,398.039703 
	C236.415283,398.816406 235.766830,399.593079 234.851547,400.959656 
	C203.354416,432.310516 171.852829,463.656891 140.365128,495.017212 
	C135.757660,499.605988 135.846222,500.247833 140.624771,504.986176 
	C152.089050,516.354065 163.562485,527.713440 174.937790,539.170105 
	C187.305771,551.626465 187.260376,551.698975 204.869507,550.931458 
	C206.231857,550.872070 207.949982,550.471069 208.848587,549.573792 
	C219.299438,539.137451 229.624466,528.575134 240.161041,517.538757 
	C240.010284,516.943237 239.859528,516.347778 239.708771,515.752258 
	C239.450775,516.224304 239.192764,516.696350 238.196060,517.102539 
	C237.461502,517.017334 236.726929,516.932068 235.772125,516.085693 
	C234.076767,515.726257 232.390640,515.110168 230.684586,515.048889 
	C219.421906,514.644592 208.154938,514.359619 196.265717,513.804260 
	C192.435349,509.570343 188.604996,505.336456 185.429245,500.783203 
	C186.270493,498.828339 187.111755,496.873474 187.988403,494.990234 
	C187.988403,494.990234 187.917542,494.953278 188.676636,494.958252 
M761.381653,490.033386 
	C761.177490,490.050171 760.973267,490.066956 760.262024,489.759399 
	C760.185181,489.169708 760.108337,488.580048 760.478271,487.638306 
	C759.523865,481.715088 758.569519,475.791870 757.480347,469.031952 
	C752.433838,468.695770 747.283264,468.121399 742.138062,468.165771 
	C740.781250,468.177490 739.440918,470.100067 738.054443,471.054352 
	C738.054443,471.054352 738.145508,471.092255 737.447571,471.134003 
	C733.905579,473.313354 733.557556,476.816589 732.699707,480.542969 
	C731.669739,485.016968 728.780090,489.027039 727.169189,493.411957 
	C725.013611,499.279724 723.497192,505.381165 721.374695,511.262543 
	C717.917725,520.841614 714.107483,530.293701 710.701538,539.889893 
	C710.330383,540.935425 711.636841,542.576416 712.588867,543.916565 
	C712.588867,543.916565 712.998291,544.028320 713.198730,544.798584 
	C717.252869,544.862793 721.309326,545.001831 725.357239,544.871765 
	C725.748230,544.859192 726.085571,543.177856 726.601624,541.947754 
	C726.757263,541.649963 726.912903,541.352112 727.776855,541.035278 
	C728.387024,540.116150 729.254578,539.275757 729.563843,538.264587 
	C731.091248,533.270264 734.074707,530.572754 739.589722,530.948547 
	C743.217224,531.195740 746.877502,531.077637 750.519043,530.976318 
	C758.284790,530.760254 759.019775,531.328308 761.206299,539.023926 
	C761.904053,541.479614 762.250671,544.539917 766.057556,543.977966 
	C766.057556,543.977966 766.059021,543.891235 766.203491,544.691040 
	C770.552368,544.936768 774.900452,545.205200 779.252686,545.351624 
	C779.441345,545.358032 779.667786,544.243591 779.833557,543.121338 
	C779.836243,542.769226 779.838989,542.417175 780.394043,541.672974 
	C780.497314,540.147644 781.070923,538.465454 780.623535,537.123779 
	C778.561523,530.940979 776.242188,524.842896 773.962769,518.734009 
	C771.602417,512.408142 769.292664,506.058228 766.680664,499.836365 
	C766.233337,498.770844 764.383850,498.293976 762.998474,496.930298 
	C763.020386,496.717499 763.042236,496.504730 763.739807,496.044800 
	C763.161499,494.031250 762.583191,492.017670 762.254211,489.896179 
	C762.167847,489.928802 762.081482,489.961426 761.381653,490.033386 
M367.053741,537.662598 
	C367.838074,538.141296 368.622437,538.619995 369.820984,539.183105 
	C369.820984,539.183105 370.031860,539.549438 369.532898,540.237610 
	C370.334381,541.483826 371.037598,543.716858 371.954163,543.808105 
	C376.295288,544.240601 380.328583,548.543823 385.665619,544.912659 
	C386.110992,544.977112 386.556396,545.041565 387.144196,545.767517 
	C388.428864,545.549011 389.713501,545.330444 391.650269,544.928528 
	C392.098785,544.949158 392.547302,544.969849 393.449280,545.512451 
	C397.743469,546.939026 401.111389,544.252380 404.924225,543.266968 
	C408.439178,542.358582 409.258667,540.893188 409.057251,537.390625 
	C409.237274,537.095642 409.500092,536.947266 410.655518,536.975586 
	C411.752136,536.286560 413.275299,535.844604 413.849518,534.853088 
	C414.807343,533.199219 415.043945,531.146790 415.783081,529.343750 
	C419.749359,519.668396 415.812256,507.714844 406.472626,503.369141 
	C399.116547,499.946411 391.444489,496.982666 383.625671,494.885223 
	C380.585175,494.069550 379.617035,492.634918 379.490448,490.519043 
	C379.396759,488.952698 380.734955,487.251648 381.586456,485.693176 
	C382.273193,484.436249 383.185944,483.302765 384.640076,481.885895 
	C385.085999,481.903564 385.531952,481.921234 386.062683,482.548218 
	C387.044098,482.359711 388.025482,482.171204 389.676544,481.899536 
	C390.118011,481.979919 390.559479,482.060272 391.092072,482.820496 
	C393.249817,486.143829 395.377472,489.487549 397.599854,492.767090 
	C397.909851,493.224487 398.669495,493.571808 399.249420,493.618744 
	C402.172363,493.855438 405.108948,494.158875 408.032745,494.091766 
	C411.966919,494.001495 415.063019,491.978546 415.787323,488.142761 
	C416.376099,485.024841 414.907959,482.296875 410.821167,481.734283 
	C410.821167,481.734283 410.867645,481.383270 410.924408,480.587372 
	C410.183411,479.760986 409.442413,478.934631 408.275024,477.970154 
	C408.052002,477.745789 407.939789,477.475433 408.225922,476.491241 
	C408.567719,471.033020 403.593414,469.997192 400.503357,469.289246 
	C393.722046,467.735565 386.560699,466.945618 379.630005,467.303833 
	C375.983093,467.492340 371.295868,469.140137 369.817993,474.685486 
	C368.886566,475.459106 367.955139,476.232727 366.264130,477.014435 
	C365.034760,477.721069 362.897461,478.254639 362.724396,479.162598 
	C361.662018,484.735596 360.047302,490.507324 360.673401,495.977478 
	C361.017181,498.980927 360.440491,505.399200 367.085632,504.919647 
	C367.085632,504.919647 367.148712,504.806030 367.076813,505.556458 
	C369.698639,507.713837 371.996643,510.751923 375.005005,511.858063 
	C382.990387,514.794128 391.282471,516.896118 399.755096,519.420044 
	C399.271576,520.944885 399.049927,521.702637 398.792175,522.447876 
	C395.646637,531.541016 391.818176,532.886169 383.004669,528.390869 
	C381.401947,527.573364 379.218903,527.893555 377.005341,527.315552 
	C377.005341,527.315552 377.063782,526.841492 377.560822,526.181396 
	C379.033630,520.712830 376.424469,517.371704 371.104065,517.803345 
	C368.812500,517.989319 366.351685,517.492676 364.248840,518.173828 
	C362.441681,518.759216 360.941345,520.493347 359.580017,521.972351 
	C359.427277,522.138245 361.063019,523.950378 362.038788,525.654175 
	C362.022308,526.103271 362.005798,526.552307 361.457092,527.504822 
	C360.904907,532.382141 363.008575,535.890686 367.020691,536.974792 
	C367.020691,536.974792 367.070984,536.890259 367.053741,537.662598 
M618.381592,519.153381 
	C615.939331,521.519470 612.729553,523.523499 613.681274,528.435974 
	C612.912415,528.547913 612.143494,528.659851 611.707031,528.392456 
	C611.495728,528.506104 611.284424,528.619751 611.323914,529.154541 
	C611.378113,529.546387 611.216675,529.801331 610.110474,529.441956 
	C606.989746,529.296814 603.856140,528.930725 600.754395,529.111694 
	C599.453857,529.187622 598.220947,530.422546 596.292664,531.166382 
	C595.861511,531.062683 595.430420,530.958984 594.867493,530.201416 
	C591.774353,526.655884 587.099182,523.567932 585.914001,519.470520 
	C583.366577,510.663666 581.038696,501.550903 587.823486,492.696838 
	C591.803711,487.502716 595.439148,483.860931 601.962708,485.104889 
	C607.126892,486.089600 612.056946,488.302338 617.642822,490.238525 
	C617.752319,490.829041 617.861816,491.419556 617.459656,492.472931 
	C617.044312,497.117981 620.617065,496.967438 623.386780,496.894226 
	C627.753418,496.778839 632.882568,498.781555 635.863220,493.458618 
	C635.936401,493.327881 635.969055,493.089020 635.898987,492.975952 
	C633.705078,489.437683 635.275269,483.864319 629.484009,481.689575 
	C629.250854,481.157410 629.017761,480.625214 629.338623,479.676575 
	C629.599792,476.717865 628.689209,475.334045 625.223938,476.757660 
	C625.223938,476.757660 625.088562,476.390930 625.493591,475.748016 
	C623.651550,471.736389 613.189148,466.950043 607.566040,467.261871 
	C603.725952,467.474884 599.687988,466.491516 596.045166,467.347748 
	C590.320129,468.693359 584.409241,470.370453 579.373108,473.283539 
	C569.897766,478.764404 567.410156,488.886841 565.484558,498.688171 
	C564.793884,502.203857 563.127991,506.663391 567.022461,510.657623 
	C566.994751,511.104950 566.967041,511.552246 566.246033,512.150574 
	C565.899109,512.475708 565.214722,512.850403 565.254150,513.118713 
	C566.460815,521.324585 567.518921,529.631897 573.749573,535.917053 
	C574.504822,536.678894 576.131653,536.576843 577.916931,537.015686 
	C578.616455,537.661743 579.315918,538.307861 580.014893,539.712830 
	C580.159607,540.342102 580.143738,541.414856 580.473022,541.533997 
	C585.348083,543.298157 590.265991,544.945374 595.202820,546.529297 
	C595.294983,546.558838 595.742249,545.481689 596.689880,544.812622 
	C597.126526,544.899109 597.563232,544.985596 598.170898,545.785522 
	C600.351440,547.392883 602.441589,548.292908 604.645691,544.822815 
	C605.092041,544.869751 605.538330,544.916748 606.303345,545.577881 
	C610.091125,545.055054 613.883850,544.561951 617.653442,543.930542 
	C617.865784,543.894958 617.887634,542.721558 618.297546,541.847412 
	C618.297546,541.847412 618.674500,541.871826 619.345154,542.142090 
	C623.053955,543.113770 624.971619,541.749084 625.057007,537.391113 
	C625.237305,537.095154 625.500793,536.946716 626.648071,536.964539 
	C628.658569,536.484924 630.669006,536.005310 633.742371,535.272095 
	C631.946838,533.555603 630.955078,532.607483 629.974304,530.907959 
	C630.350769,530.271912 630.727234,529.635864 631.756165,528.992249 
	C633.212891,525.801208 634.669556,522.610107 636.819824,517.899780 
	C630.494385,517.479126 625.546021,517.084045 620.590088,516.924988 
	C620.106689,516.909485 619.576660,518.349548 619.031799,519.028809 
	C619.031799,519.028809 619.114807,519.069946 618.381592,519.153381 
M886.691956,512.804199 
	C888.526001,508.749023 889.496704,504.743530 886.004150,500.999847 
	C886.004150,500.999847 885.999634,501.001068 885.965759,500.248474 
	C884.123596,499.414795 882.307800,497.943268 880.434448,497.866058 
	C874.639648,497.627197 868.822754,497.980103 863.015015,497.956207 
	C861.796570,497.951202 859.586487,497.440521 859.526733,496.954651 
	C859.167114,494.028656 858.738342,490.877777 859.534302,488.153137 
	C859.872498,486.995361 863.108154,486.138794 865.051270,486.088989 
	C873.614441,485.869598 882.186401,485.994293 890.922607,485.994293 
	C890.922607,484.764679 890.922607,483.777222 890.882751,482.086853 
	C890.929443,481.390625 890.976196,480.694427 891.549927,479.490448 
	C891.374084,477.660553 891.198303,475.830658 890.847839,473.310577 
	C890.876892,472.599335 890.906006,471.888123 890.847046,470.401520 
	C888.841492,469.602997 886.854492,468.169250 884.827393,468.110291 
	C872.727417,467.758209 860.617676,467.606812 848.512207,467.652283 
	C844.831726,467.666107 840.999634,468.269562 841.003357,473.479919 
	C841.019470,495.893463 840.966370,518.307373 841.144653,540.719482 
	C841.153259,541.800842 843.118347,542.866516 844.594727,543.863098 
	C844.594727,543.863098 844.998718,544.007874 845.603638,544.581909 
	C859.840088,544.695374 874.076416,544.819519 888.313110,544.882385 
	C888.875732,544.884888 889.441040,544.302307 890.709290,543.658203 
	C890.804565,539.417786 890.899902,535.177429 890.793030,530.160400 
	C889.278259,529.774719 887.770142,529.090393 886.247498,529.056274 
	C880.424866,528.925537 874.595337,529.107910 868.772522,528.982117 
	C857.683533,528.742615 859.195068,531.393066 858.945129,518.797607 
	C858.880554,515.544067 860.379150,514.902466 863.191284,514.960388 
	C869.347107,515.087097 875.512085,515.126831 881.662231,514.899841 
	C883.111633,514.846313 884.516907,513.595520 885.974243,512.974304 
	C885.974243,512.974304 885.895508,512.942383 886.691956,512.804199 
M780.204529,483.740143 
	C783.347107,484.158875 786.482239,484.857880 789.633728,484.941833 
	C797.859863,485.160919 796.980408,484.192841 796.997498,492.547333 
	C797.029297,508.131439 796.940735,523.716309 797.099243,539.298950 
	C797.114929,540.847168 798.491272,542.381592 799.630981,543.871643 
	C799.630981,543.871643 800.000366,544.019897 800.581726,544.575317 
	C803.728333,544.359619 806.874878,544.143860 810.784729,543.733154 
	C811.322510,542.460327 812.322021,541.189880 812.328857,539.914246 
	C812.429504,521.111023 812.398132,502.307037 812.398132,482.948090 
	C818.727966,482.948090 824.779480,482.948090 830.673706,482.948090 
	C830.673706,478.641388 830.673706,474.896484 830.673706,471.248596 
	C813.613037,471.248596 796.862549,471.248596 780.015503,471.248596 
	C780.015503,475.327698 780.015503,479.138702 780.204529,483.740143 
M444.366302,543.633484 
	C448.604492,543.633484 452.842682,543.633484 457.288452,543.633484 
	C457.288452,537.178223 457.725922,531.328735 457.184296,525.571350 
	C456.402710,517.262573 458.754242,510.130829 462.893585,503.046661 
	C468.926331,492.722046 474.304169,482.014709 480.227264,470.974670 
	C476.487061,470.974670 473.336731,471.265930 470.265106,470.898621 
	C466.679016,470.469757 465.054840,472.019684 463.597504,475.098572 
	C459.469757,483.818848 454.984772,492.370026 450.397247,501.470367 
	C445.743866,492.052429 441.417480,483.131226 436.892334,474.312073 
	C436.197174,472.957184 434.670959,471.254059 433.383820,471.121429 
	C429.366821,470.707458 425.280151,470.969574 420.556885,470.969574 
	C425.205597,479.516235 429.020294,487.572052 433.772095,495.030853 
	C441.668671,507.425995 446.064667,520.470215 444.039856,535.315979 
	C443.705780,537.765259 444.024902,540.303772 444.366302,543.633484 
z"/>
<path fill="#F6F6F6" opacity="1.000000" stroke="none" 
	d="
M292.865356,390.955383 
	C273.277710,410.413940 253.729919,429.912872 234.086624,449.315094 
	C223.195068,460.072998 212.143875,470.669312 200.777084,481.763428 
	C199.903000,482.784882 199.416473,483.381287 198.929962,483.977722 
	C198.566223,483.978455 198.288895,484.133606 197.753204,484.788116 
	C196.902237,485.742737 196.396042,486.352417 195.889832,486.962128 
	C194.321136,488.401062 192.752457,489.840027 190.781143,491.703552 
	C189.558182,493.069824 188.737854,494.011566 187.917542,494.953278 
	C187.917542,494.953278 187.988403,494.990234 187.661194,495.085999 
	C186.480881,497.155396 185.627762,499.128998 184.774643,501.102570 
	C188.604996,505.336456 192.435349,509.570343 196.746475,514.259888 
	C199.165390,515.472961 201.094040,516.854858 203.043274,516.884460 
	C214.023560,517.051758 225.008820,516.893799 235.992371,516.846802 
	C236.726929,516.932068 237.461502,517.017334 238.657745,517.361084 
	C239.362213,517.852905 239.650009,517.995117 239.982849,518.046204 
	C229.624466,528.575134 219.299438,539.137451 208.848587,549.573792 
	C207.949982,550.471069 206.231857,550.872070 204.869507,550.931458 
	C187.260376,551.698975 187.305771,551.626465 174.937790,539.170105 
	C163.562485,527.713440 152.089050,516.354065 140.624771,504.986176 
	C135.846222,500.247833 135.757660,499.605988 140.365128,495.017212 
	C171.852829,463.656891 203.354416,432.310516 235.264236,400.540710 
	C236.375748,399.396393 237.074585,398.670990 237.773407,397.945587 
	C239.738876,396.103210 241.704346,394.260834 244.110535,391.961395 
	C247.711365,387.211182 252.127258,386.155579 257.198730,386.213623 
	C267.329895,386.329620 277.464355,386.134735 287.596405,386.210846 
	C290.093475,386.229614 292.586426,386.796387 295.734589,387.193695 
	C294.396454,388.948029 293.630920,389.951691 292.865356,390.955383 
z"/>
<path fill="#F6F6F6" opacity="1.000000" stroke="none" 
	d="
M330.006165,504.998383 
	C329.623230,505.747101 329.240295,506.495819 328.528168,507.684814 
	C327.722076,508.723969 327.245209,509.322845 326.768311,509.921692 
	C312.664429,523.938477 298.565094,537.959778 284.455292,551.970642 
	C272.690247,563.653076 260.912964,575.323303 248.710678,587.447021 
	C247.399124,588.891174 246.518005,589.887207 245.636902,590.883301 
	C244.455566,591.922485 243.274231,592.961670 241.689713,594.425659 
	C240.411362,595.804565 239.536179,596.758606 238.660995,597.712585 
	C238.660980,597.712585 238.812607,597.807434 238.472229,597.864929 
	C236.819626,599.301880 235.507401,600.681335 234.195160,602.060791 
	C233.882797,602.260742 233.570435,602.460754 232.885315,603.040588 
	C231.862534,604.133911 231.212509,604.847412 230.562500,605.560974 
	C230.706833,605.707336 230.851151,605.853699 230.507584,605.946777 
	C228.729675,607.275269 227.439667,608.656982 226.149658,610.038635 
	C223.864426,612.152283 221.579178,614.265930 218.721069,616.695068 
	C216.029953,617.235291 213.914734,617.616028 211.792892,617.657654 
	C203.195770,617.826172 194.596603,617.890503 185.998199,617.993286 
	C183.305298,617.927246 180.612381,617.861267 177.219055,617.664429 
	C175.691025,617.319336 174.863419,617.105042 174.035797,616.890686 
	C174.639282,616.151489 175.242767,615.412354 176.249359,614.269104 
	C178.146149,612.257935 179.639816,610.650879 181.133484,609.043762 
	C184.025024,606.279968 186.916565,603.516113 190.229111,600.308411 
	C192.146271,598.257874 193.642426,596.651245 195.138580,595.044617 
	C196.041901,594.267517 196.945221,593.490479 198.252716,592.290771 
	C200.573120,589.878052 202.489319,587.887878 204.405533,585.897705 
	C204.405548,585.897705 204.750046,585.769714 205.040649,585.433594 
	C205.932144,584.412781 206.533035,583.728149 207.133926,583.043518 
	C207.714355,582.586060 208.294769,582.128601 209.259125,581.270874 
	C210.813156,579.597412 211.983246,578.324280 213.153320,577.051147 
	C213.506027,577.057190 213.768219,576.906128 214.298492,576.232422 
	C216.573044,573.875000 218.489044,571.883240 220.405029,569.891418 
	C220.405029,569.891418 220.742126,569.762207 221.031982,569.428345 
	C221.930344,568.412048 222.538834,567.729492 223.147324,567.046997 
	C225.702820,564.619690 228.258316,562.192444 231.224899,559.329712 
	C232.471069,557.944458 233.306168,556.994629 234.141266,556.044800 
	C235.704788,554.613892 237.268311,553.182922 239.200851,551.346802 
	C240.186111,550.254822 240.802338,549.567993 241.418564,548.881165 
	C241.418564,548.881165 241.744797,548.753723 242.036255,548.426697 
	C242.939148,547.417175 243.550568,546.734680 244.161987,546.052185 
	C244.736526,545.597168 245.311066,545.142151 246.273224,544.280457 
	C248.492950,541.933044 250.325058,539.992249 252.157150,538.051453 
	C252.505249,538.057922 252.768036,537.911377 253.303848,537.244751 
	C255.489136,534.933594 257.316071,532.989502 259.143005,531.045471 
	C259.492554,531.048889 259.757599,530.900940 260.252625,530.268188 
	C261.185730,529.250549 261.804260,528.566284 262.422791,527.882019 
	C262.422821,527.882019 262.753479,527.750732 263.064178,527.410034 
	C264.954041,525.402344 266.533203,523.735352 268.112396,522.068359 
	C268.112396,522.068359 268.028320,522.027893 268.347595,521.943237 
	C269.824768,520.587341 270.982727,519.316101 272.140686,518.044922 
	C272.492310,518.049316 272.757019,517.899841 273.283661,517.241089 
	C274.470856,515.939514 275.309174,514.993286 276.147522,514.047058 
	C276.725555,513.592468 277.303650,513.137878 278.263794,512.280884 
	C279.817963,510.603485 280.990112,509.328613 282.162292,508.053741 
	C282.509491,508.061890 282.772644,507.917236 283.330444,507.232483 
	C286.652374,503.544006 284.279724,501.562866 281.905426,499.582153 
	C281.905426,499.582153 281.769135,499.238037 281.423462,498.929810 
	C279.735596,497.362701 278.393372,496.103790 277.051147,494.844910 
	C275.603485,493.287903 274.155823,491.730896 272.208221,489.715332 
	C269.848846,488.841705 267.992828,488.086182 266.129395,488.067474 
	C254.918015,487.955048 243.704071,488.075439 232.493698,487.921265 
	C231.259094,487.904297 230.041672,486.638672 228.816284,485.952179 
	C238.593964,476.428528 248.367767,466.900909 258.153656,457.385712 
	C259.567108,456.011322 261.038574,454.696594 263.210999,453.167358 
	C270.596985,453.072479 277.255249,453.164551 283.913483,453.256622 
	C298.684998,468.104797 313.456512,482.952972 328.616638,498.208435 
	C329.275635,499.103882 329.546082,499.591980 329.816498,500.080078 
	C329.855957,500.515259 329.895386,500.950470 329.979034,502.068024 
	C330.017517,503.499725 330.011841,504.249054 330.006165,504.998383 
z"/>
<path fill="#F3F2F2" opacity="1.000000" stroke="none" 
	d="
M539.992432,543.982239 
	C538.985413,542.754517 537.978394,541.526794 536.639282,539.779907 
	C535.887390,538.796326 535.467712,538.331970 535.047974,537.867615 
	C526.977295,525.871216 518.906616,513.874878 510.513489,501.435944 
	C509.286774,499.257996 508.382507,497.522552 507.045349,494.956329 
	C507.045349,511.467926 507.045349,526.732178 507.045349,541.996460 
	C506.811768,542.491150 506.578156,542.985901 505.718719,543.639404 
	C501.393097,543.854553 497.693329,543.910950 493.993530,543.967285 
	C493.694061,543.823853 493.438721,543.624023 493.103943,542.714478 
	C492.935181,532.375916 492.889923,522.690796 492.844696,513.005615 
	C492.895111,511.610535 492.945496,510.215454 492.984192,507.974060 
	C492.929718,505.087311 492.886932,503.046814 492.844147,501.006348 
	C492.894745,496.974274 492.945343,492.942169 492.984436,488.081116 
	C492.929962,486.503510 492.887024,485.754852 492.844116,485.006226 
	C492.894745,484.250488 492.945404,483.494781 492.984833,481.906403 
	C492.973602,477.721283 492.973602,474.368805 492.973602,471.158417 
	C498.090363,471.158417 502.497131,471.158417 506.903900,471.158417 
	C506.903900,471.158417 506.936981,471.068298 506.988647,471.409149 
	C507.985291,473.009033 508.930298,474.268066 509.875275,475.527100 
	C512.915649,480.237701 515.956055,484.948303 519.330078,490.189270 
	C520.266602,491.554535 520.869507,492.389465 521.472473,493.224426 
	C522.382751,494.743774 523.292969,496.263123 524.599487,498.232391 
	C525.624878,499.511719 526.254028,500.341187 526.883240,501.170624 
	C526.883240,501.170624 526.916199,501.077179 526.953247,501.407837 
	C527.634583,502.567322 528.278931,503.396149 528.923279,504.224945 
	C529.551025,505.308807 530.178772,506.392639 531.041260,508.064056 
	C532.443909,510.189453 533.611877,511.727234 534.779846,513.265015 
	C534.779846,513.265015 534.850525,513.132935 534.877441,513.515625 
	C536.130493,515.839600 537.356628,517.780884 538.847839,520.141724 
	C538.847839,516.376709 538.847839,513.191040 538.847839,510.005341 
	C538.898682,507.628204 538.949463,505.251068 538.988403,501.969696 
	C539.019348,491.062531 539.062134,481.059570 539.104919,471.056641 
	C539.104919,471.056641 539.026123,471.025208 539.499634,471.008331 
	C544.290955,471.066010 548.608765,471.140564 552.926575,471.215118 
	C552.926575,471.215118 552.900696,471.630890 552.879150,472.279053 
	C552.925781,495.947968 552.993896,518.968750 553.062012,541.989502 
	C552.847717,542.511475 552.633362,543.033447 551.760376,543.673096 
	C547.398682,543.854614 543.695557,543.918457 539.992432,543.982239 
z"/>
<path fill="#F4F4F5" opacity="1.000000" stroke="none" 
	d="
M646.867188,476.017090 
	C646.919800,474.656219 646.972351,473.295380 647.492798,471.452362 
	C659.355957,470.928406 670.751282,470.886597 682.146545,470.844757 
	C682.146545,470.844757 682.541565,470.562164 682.425659,470.391052 
	C682.309753,470.219971 682.354492,470.169098 682.354492,470.169098 
	C682.484314,470.426056 682.614075,470.683014 683.375732,471.127686 
	C684.669312,471.493958 685.330933,471.672485 685.992615,471.851013 
	C688.122742,472.892426 690.252808,473.933868 692.829590,475.373413 
	C702.080872,483.802795 703.950562,494.590942 698.553467,506.221924 
	C698.553467,506.221924 698.306580,506.362030 698.094604,506.759796 
	C694.659546,510.109406 691.436462,513.061218 688.062683,516.151001 
	C690.100952,520.092468 692.339722,524.242920 694.411987,528.474915 
	C696.909241,533.574768 699.265320,538.743774 701.682495,543.882874 
	C701.682495,543.882874 701.316772,543.818115 700.763550,543.815125 
	C695.520386,543.476562 690.830505,543.141052 686.140564,542.805542 
	C686.140564,542.805542 686.101501,542.906189 686.092041,542.541870 
	C685.425781,541.016174 684.768921,539.854858 684.112061,538.693542 
	C684.112061,538.693542 684.131836,538.307922 684.033203,537.869629 
	C683.654358,537.202271 683.374207,536.973145 683.093994,536.744080 
	C683.093994,536.744080 683.098877,536.344604 682.981689,535.815918 
	C681.606689,532.817383 680.314636,530.364319 679.096863,527.874817 
	C673.775635,516.996216 673.783386,516.991821 661.808105,517.502197 
	C661.656128,517.508667 661.509277,517.634277 661.098022,517.827271 
	C661.098022,519.467224 661.098022,521.233521 661.098022,522.999878 
	C661.045227,524.392273 660.992432,525.784607 660.944031,528.048462 
	C660.913452,533.777405 660.878479,538.634827 660.403442,543.609863 
	C655.974670,543.818237 651.986145,543.909119 647.997559,544.000000 
	C647.673035,538.968201 647.348511,533.936462 647.011658,527.985962 
	C646.953674,523.050659 646.908020,519.034058 646.862427,515.017517 
	C646.917236,504.315033 646.972107,493.612549 647.015442,482.024353 
	C646.958435,479.431427 646.912842,477.724274 646.867188,476.017090 
M684.027954,486.972961 
	C684.027954,486.972961 684.113708,486.929321 683.895264,486.234161 
	C676.852173,480.458099 668.699097,484.067963 660.864685,482.912292 
	C660.970093,484.692383 661.038391,485.846039 660.947144,487.920105 
	C660.999268,492.613068 661.051392,497.306030 660.957703,502.837555 
	C661.698547,503.750488 662.372620,505.379211 663.191467,505.455505 
	C667.286865,505.837189 671.493835,506.330383 675.515747,505.758514 
	C678.505371,505.333466 681.272278,503.342194 684.597717,501.932251 
	C684.893982,501.750153 685.044189,501.485260 685.749451,500.806458 
	C688.464111,494.838409 688.007141,491.047333 684.027954,486.972961 
z"/>
<path fill="#F6F6F6" opacity="1.000000" stroke="none" 
	d="
M597.999878,545.072083 
	C597.563232,544.985596 597.126526,544.899109 596.048950,544.647339 
	C590.277161,542.639343 585.146301,540.796631 580.015442,538.953918 
	C579.315918,538.307861 578.616455,537.661743 577.485107,536.629761 
	C570.394653,529.533752 568.635681,520.779724 566.939270,511.999573 
	C566.967041,511.552246 566.994751,511.104950 567.008911,509.881348 
	C566.978149,498.493774 568.309448,488.154968 575.661499,479.865417 
	C587.429138,466.597168 608.892761,465.233765 625.088562,476.390930 
	C625.088562,476.390930 625.223938,476.757660 625.574219,477.051849 
	C626.877930,478.261688 627.831299,479.177368 628.784668,480.093048 
	C629.017761,480.625214 629.250854,481.157410 629.779846,482.222473 
	C631.276245,486.475342 632.476868,490.195251 633.798401,494.290039 
	C629.130981,494.290039 625.687500,494.515839 622.297974,494.186432 
	C620.799438,494.040771 619.410156,492.770020 617.971313,492.010040 
	C617.861816,491.419556 617.752319,490.829041 617.299255,489.762207 
	C608.982544,477.842712 590.202759,479.597534 584.179321,492.509979 
	C582.677002,495.730408 581.829041,499.373322 581.313477,502.914246 
	C579.894531,512.660583 584.690735,528.620422 594.999268,530.855286 
	C595.430420,530.958984 595.861511,531.062683 596.952026,531.393677 
	C602.020752,531.053833 606.430176,530.486633 610.839539,529.919373 
	C611.216675,529.801331 611.378113,529.546387 611.280151,528.948975 
	C611.236450,528.743408 611.374634,528.771729 611.374634,528.771729 
	C612.143494,528.659851 612.912415,528.547913 614.302124,527.919067 
	C616.320251,524.624817 617.717529,521.847412 619.114807,519.069946 
	C619.114807,519.069946 619.031799,519.028809 619.509094,519.022339 
	C624.279846,519.015869 628.573303,519.015869 633.459229,519.015869 
	C632.594788,522.679932 631.849243,525.839905 631.103760,528.999817 
	C630.727234,529.635864 630.350769,530.271912 629.706238,531.419556 
	C628.241211,533.602661 627.044250,535.274170 625.847351,536.945679 
	C625.500793,536.946716 625.237305,537.095154 624.680420,537.743652 
	C622.427368,539.354797 620.550964,540.613342 618.674500,541.871826 
	C618.674500,541.871826 618.297546,541.847412 617.760132,541.969788 
	C613.476746,543.049316 609.730713,544.006470 605.984680,544.963684 
	C605.538330,544.916748 605.092041,544.869751 603.898071,544.870605 
	C601.433533,544.969666 599.716736,545.020874 597.999878,545.072083 
z"/>
<path fill="#F2F2F2" opacity="1.000000" stroke="none" 
	d="
M890.995239,530.937012 
	C890.899902,535.177429 890.804565,539.417786 889.900146,543.711121 
	C874.393555,543.845337 859.696167,543.926575 844.998718,544.007812 
	C844.998718,544.007874 844.594727,543.863098 844.154053,543.549316 
	C843.619812,520.456421 843.522461,497.677216 843.442566,474.898010 
	C843.438110,473.636749 843.578247,472.374939 843.647461,471.176880 
	C859.651855,471.176880 875.293457,471.176880 890.935059,471.176880 
	C890.906006,471.888123 890.876892,472.599335 890.847168,474.077576 
	C890.905334,476.562439 890.964111,478.280334 891.022949,479.998199 
	C890.976196,480.694427 890.929443,481.390625 890.446228,482.526489 
	C879.106934,482.966125 868.204163,482.966125 857.350952,482.966125 
	C857.350952,489.217590 857.350952,494.912476 857.350952,500.742310 
	C862.332886,500.742310 866.965881,500.708679 871.598145,500.751587 
	C876.398987,500.796082 881.199158,500.914795 885.999634,501.001068 
	C885.999634,501.001068 886.004150,500.999847 886.011841,501.457336 
	C885.978210,505.590668 885.936890,509.266510 885.895508,512.942383 
	C885.895508,512.942383 885.974243,512.974304 885.496582,512.992554 
	C875.759155,513.010742 866.499451,513.010742 857.302002,513.010742 
	C857.302002,519.313660 857.302002,525.044556 857.302002,530.937012 
	C868.724365,530.937012 879.859802,530.937012 890.995239,530.937012 
z"/>
<path fill="#F4F4F5" opacity="1.000000" stroke="none" 
	d="
M409.845703,536.945557 
	C409.500092,536.947266 409.237274,537.095642 408.679169,537.759155 
	C403.199341,540.415283 398.097565,542.702881 392.995819,544.990479 
	C392.547302,544.969849 392.098785,544.949158 390.927643,544.957397 
	C389.137268,545.026245 388.069519,545.066162 387.001770,545.106018 
	C386.556396,545.041565 386.110992,544.977112 384.970337,544.853271 
	C379.527313,543.045715 374.779602,541.297607 370.031860,539.549438 
	C370.031860,539.549438 369.820984,539.183105 369.457458,538.917725 
	C368.419617,538.065002 367.745300,537.477661 367.070984,536.890259 
	C367.070984,536.890259 367.020691,536.974792 366.935181,536.626709 
	C365.229553,533.186157 363.609436,530.093811 361.989319,527.001404 
	C362.005798,526.552307 362.022308,526.103271 362.017944,524.873535 
	C361.815033,521.896179 362.022491,520.257751 365.025696,520.495422 
	C368.241821,520.750000 371.493713,520.552856 374.233154,520.552856 
	C375.353241,523.041260 376.208496,524.941406 377.063782,526.841492 
	C377.063782,526.841492 377.005341,527.315552 377.381592,527.749634 
	C382.835907,533.378418 388.856445,533.374939 395.126617,531.102478 
	C398.934509,529.722412 401.857452,527.038330 401.803436,522.775269 
	C401.747223,518.337097 398.276184,516.353455 394.509766,515.079834 
	C392.964142,514.557129 391.307190,514.374023 389.731689,513.927612 
	C381.876862,511.702026 373.656494,510.369263 367.148712,504.806030 
	C367.148712,504.806030 367.085632,504.919647 367.011658,504.554688 
	C360.743011,494.920135 360.771210,486.003204 367.023682,477.006348 
	C367.955139,476.232727 368.886566,475.459106 370.271698,474.278198 
	C383.208862,466.361664 396.886963,467.570282 407.938324,477.159119 
	C407.939789,477.475433 408.052002,477.745789 408.598450,478.355347 
	C409.570465,479.621460 410.219055,480.502350 410.867645,481.383270 
	C410.867645,481.383270 410.821167,481.734283 410.948730,482.262756 
	C411.743988,485.397278 412.411743,488.003326 413.147217,490.873718 
	C408.174469,490.873718 403.881287,490.873718 399.479034,490.873718 
	C398.327911,486.357849 396.122711,482.809814 391.000946,482.140625 
	C390.559479,482.060272 390.118011,481.979919 389.121887,481.793762 
	C387.704102,481.771667 386.840973,481.855316 385.977875,481.938965 
	C385.531952,481.921234 385.085999,481.903564 383.950500,481.948792 
	C378.787292,483.057739 375.788696,485.361572 375.811066,490.433960 
	C375.833557,495.540894 379.419128,497.012299 383.424194,498.117279 
	C384.535187,498.423828 385.648102,498.723511 386.758026,499.033875 
	C391.822449,500.449982 397.043671,501.464050 401.920166,503.363220 
	C416.052521,508.867004 419.268036,522.946045 409.845703,536.945557 
z"/>
<path fill="#F4F4F5" opacity="1.000000" stroke="none" 
	d="
M727.068542,541.054321 
	C726.912903,541.352112 726.757263,541.649963 726.273560,542.434814 
	C721.629761,543.290649 717.314026,543.659485 712.998291,544.028320 
	C712.998291,544.028320 712.588867,543.916565 712.291809,543.553223 
	C712.473389,541.633667 712.882446,540.052002 713.440979,538.525146 
	C721.664124,516.043213 729.907166,493.568604 738.145508,471.092255 
	C738.145508,471.092255 738.054443,471.054352 738.528442,471.017517 
	C743.795227,470.980713 748.587891,470.980713 753.309753,470.980713 
	C755.615295,476.814972 757.823425,482.402679 760.031555,487.990356 
	C760.108337,488.580048 760.185181,489.169708 760.565796,490.270630 
	C761.601074,492.618530 762.332642,494.455261 763.064148,496.291962 
	C763.042236,496.504730 763.020386,496.717499 763.219482,497.590118 
	C768.907532,512.854980 774.374634,527.460022 779.841675,542.065063 
	C779.838989,542.417175 779.836243,542.769226 779.403625,543.458862 
	C774.668823,543.828003 770.363892,543.859619 766.059021,543.891235 
	C766.059021,543.891235 766.057556,543.977966 765.851074,543.665894 
	C764.136597,539.219788 762.801575,535.008911 761.018921,530.996887 
	C760.458801,529.736511 758.721985,528.211609 757.478882,528.170654 
	C749.705566,527.914612 741.916809,527.941589 734.140686,528.152893 
	C732.916382,528.186157 731.117188,529.369263 730.641113,530.475647 
	C729.174927,533.883362 728.221252,537.511719 727.068542,541.054321 
M746.461426,515.878723 
	C749.533264,515.878723 752.605103,515.878723 756.024902,515.878723 
	C752.554199,505.944000 749.306030,496.646301 745.815735,486.655487 
	C742.292664,496.825165 739.079895,506.098999 735.692078,515.878235 
	C739.290588,515.878235 742.396606,515.878235 746.461426,515.878723 
z"/>
<path fill="#F6F6F6" opacity="1.000000" stroke="none" 
	d="
M800.000366,544.019897 
	C800.000366,544.019897 799.630981,543.871643 799.333679,543.442505 
	C799.036377,523.116455 799.036377,503.219635 799.036377,482.949738 
	C792.269165,482.949738 786.142334,482.949738 780.015503,482.949738 
	C780.015503,479.138702 780.015503,475.327698 780.015503,471.248596 
	C796.862549,471.248596 813.613037,471.248596 830.673706,471.248596 
	C830.673706,474.896484 830.673706,478.641388 830.673706,482.948090 
	C824.779480,482.948090 818.727966,482.948090 812.398132,482.948090 
	C812.398132,502.307037 812.429504,521.111023 812.328857,539.914246 
	C812.322021,541.189880 811.322510,542.460327 809.954834,543.736084 
	C806.083435,543.832703 803.041931,543.926331 800.000366,544.019897 
z"/>
<path fill="#F4F4F5" opacity="1.000000" stroke="none" 
	d="
M444.204224,543.217285 
	C444.024902,540.303772 443.705780,537.765259 444.039856,535.315979 
	C446.064667,520.470215 441.668671,507.425995 433.772095,495.030853 
	C429.020294,487.572052 425.205597,479.516235 420.556885,470.969574 
	C425.280151,470.969574 429.366821,470.707458 433.383820,471.121429 
	C434.670959,471.254059 436.197174,472.957184 436.892334,474.312073 
	C441.417480,483.131226 445.743866,492.052429 450.397247,501.470367 
	C454.984772,492.370026 459.469757,483.818848 463.597504,475.098572 
	C465.054840,472.019684 466.679016,470.469757 470.265106,470.898621 
	C473.336731,471.265930 476.487061,470.974670 480.227264,470.974670 
	C474.304169,482.014709 468.926331,492.722046 462.893585,503.046661 
	C458.754242,510.130829 456.402710,517.262573 457.184296,525.571350 
	C457.725922,531.328735 457.288452,537.178223 457.288452,543.633484 
	C452.842682,543.633484 448.604492,543.633484 444.204224,543.217285 
z"/>
<path fill="#0A0C11" opacity="1.000000" stroke="none" 
	d="
M890.891052,470.789185 
	C875.293457,471.176880 859.651855,471.176880 843.647461,471.176880 
	C843.578247,472.374939 843.438110,473.636749 843.442566,474.898010 
	C843.522461,497.677216 843.619812,520.456421 843.942932,543.587524 
	C843.118347,542.866516 841.153259,541.800842 841.144653,540.719482 
	C840.966370,518.307373 841.019470,495.893463 841.003357,473.479919 
	C840.999634,468.269562 844.831726,467.666107 848.512207,467.652283 
	C860.617676,467.606812 872.727417,467.758209 884.827393,468.110291 
	C886.854492,468.169250 888.841492,469.602997 890.891052,470.789185 
z"/>
<path fill="#0A0C11" opacity="1.000000" stroke="none" 
	d="
M885.982666,500.624756 
	C881.199158,500.914795 876.398987,500.796082 871.598145,500.751587 
	C866.965881,500.708679 862.332886,500.742310 857.350952,500.742310 
	C857.350952,494.912476 857.350952,489.217590 857.350952,482.966125 
	C868.204163,482.966125 879.106934,482.966125 890.466187,482.877930 
	C890.922607,483.777222 890.922607,484.764679 890.922607,485.994293 
	C882.186401,485.994293 873.614441,485.869598 865.051270,486.088989 
	C863.108154,486.138794 859.872498,486.995361 859.534302,488.153137 
	C858.738342,490.877777 859.167114,494.028656 859.526733,496.954651 
	C859.586487,497.440521 861.796570,497.951202 863.015015,497.956207 
	C868.822754,497.980103 874.639648,497.627197 880.434448,497.866058 
	C882.307800,497.943268 884.123596,499.414795 885.982666,500.624756 
z"/>
<path fill="#0A0C11" opacity="1.000000" stroke="none" 
	d="
M410.250610,536.960571 
	C419.268036,522.946045 416.052521,508.867004 401.920166,503.363220 
	C397.043671,501.464050 391.822449,500.449982 386.758026,499.033875 
	C385.648102,498.723511 384.535187,498.423828 383.424194,498.117279 
	C379.419128,497.012299 375.833557,495.540894 375.811066,490.433960 
	C375.788696,485.361572 378.787292,483.057739 383.629669,482.063110 
	C383.185944,483.302765 382.273193,484.436249 381.586456,485.693176 
	C380.734955,487.251648 379.396759,488.952698 379.490448,490.519043 
	C379.617035,492.634918 380.585175,494.069550 383.625671,494.885223 
	C391.444489,496.982666 399.116547,499.946411 406.472626,503.369141 
	C415.812256,507.714844 419.749359,519.668396 415.783081,529.343750 
	C415.043945,531.146790 414.807343,533.199219 413.849518,534.853088 
	C413.275299,535.844604 411.752136,536.286560 410.250610,536.960571 
z"/>
<path fill="#0A0C11" opacity="1.000000" stroke="none" 
	d="
M594.933350,530.528320 
	C584.690735,528.620422 579.894531,512.660583 581.313477,502.914246 
	C581.829041,499.373322 582.677002,495.730408 584.179321,492.509979 
	C590.202759,479.597534 608.982544,477.842712 617.023315,489.627808 
	C612.056946,488.302338 607.126892,486.089600 601.962708,485.104889 
	C595.439148,483.860931 591.803711,487.502716 587.823486,492.696838 
	C581.038696,501.550903 583.366577,510.663666 585.914001,519.470520 
	C587.099182,523.567932 591.774353,526.655884 594.933350,530.528320 
z"/>
<path fill="#0A0C11" opacity="1.000000" stroke="none" 
	d="
M625.291077,476.069458 
	C608.892761,465.233765 587.429138,466.597168 575.661499,479.865417 
	C568.309448,488.154968 566.978149,498.493774 566.928528,509.552399 
	C563.127991,506.663391 564.793884,502.203857 565.484558,498.688171 
	C567.410156,488.886841 569.897766,478.764404 579.373108,473.283539 
	C584.409241,470.370453 590.320129,468.693359 596.045166,467.347748 
	C599.687988,466.491516 603.725952,467.474884 607.566040,467.261871 
	C613.189148,466.950043 623.651550,471.736389 625.291077,476.069458 
z"/>
<path fill="#0A0C11" opacity="1.000000" stroke="none" 
	d="
M737.796509,471.113129 
	C729.907166,493.568604 721.664124,516.043213 713.440979,538.525146 
	C712.882446,540.052002 712.473389,541.633667 712.079956,543.565491 
	C711.636841,542.576416 710.330383,540.935425 710.701538,539.889893 
	C714.107483,530.293701 717.917725,520.841614 721.374695,511.262543 
	C723.497192,505.381165 725.013611,499.279724 727.169189,493.411957 
	C728.780090,489.027039 731.669739,485.016968 732.699707,480.542969 
	C733.557556,476.816589 733.905579,473.313354 737.796509,471.113129 
z"/>
<path fill="#020409" opacity="1.000000" stroke="none" 
	d="
M780.109985,483.344940 
	C786.142334,482.949738 792.269165,482.949738 799.036377,482.949738 
	C799.036377,503.219635 799.036377,523.116455 799.136230,543.467896 
	C798.491272,542.381592 797.114929,540.847168 797.099243,539.298950 
	C796.940735,523.716309 797.029297,508.131439 796.997498,492.547333 
	C796.980408,484.192841 797.859863,485.160919 789.633728,484.941833 
	C786.482239,484.857880 783.347107,484.158875 780.109985,483.344940 
z"/>
<path fill="#0A0C11" opacity="1.000000" stroke="none" 
	d="
M367.112762,505.181244 
	C373.656494,510.369263 381.876862,511.702026 389.731689,513.927612 
	C391.307190,514.374023 392.964142,514.557129 394.509766,515.079834 
	C398.276184,516.353455 401.747223,518.337097 401.803436,522.775269 
	C401.857452,527.038330 398.934509,529.722412 395.126617,531.102478 
	C388.856445,533.374939 382.835907,533.378418 377.530792,527.936157 
	C379.218903,527.893555 381.401947,527.573364 383.004669,528.390869 
	C391.818176,532.886169 395.646637,531.541016 398.792175,522.447876 
	C399.049927,521.702637 399.271576,520.944885 399.755096,519.420044 
	C391.282471,516.896118 382.990387,514.794128 375.005005,511.858063 
	C371.996643,510.751923 369.698639,507.713837 367.112762,505.181244 
z"/>
<path fill="#020409" opacity="1.000000" stroke="none" 
	d="
M890.894165,530.548706 
	C879.859802,530.937012 868.724365,530.937012 857.302002,530.937012 
	C857.302002,525.044556 857.302002,519.313660 857.302002,513.010742 
	C866.499451,513.010742 875.759155,513.010742 885.480652,512.953125 
	C884.516907,513.595520 883.111633,514.846313 881.662231,514.899841 
	C875.512085,515.126831 869.347107,515.087097 863.191284,514.960388 
	C860.379150,514.902466 858.880554,515.544067 858.945129,518.797607 
	C859.195068,531.393066 857.683533,528.742615 868.772522,528.982117 
	C874.595337,529.107910 880.424866,528.925537 886.247498,529.056274 
	C887.770142,529.090393 889.278259,529.774719 890.894165,530.548706 
z"/>
<path fill="#0A0C11" opacity="1.000000" stroke="none" 
	d="
M727.422729,541.044800 
	C728.221252,537.511719 729.174927,533.883362 730.641113,530.475647 
	C731.117188,529.369263 732.916382,528.186157 734.140686,528.152893 
	C741.916809,527.941589 749.705566,527.914612 757.478882,528.170654 
	C758.721985,528.211609 760.458801,529.736511 761.018921,530.996887 
	C762.801575,535.008911 764.136597,539.219788 765.883423,543.636963 
	C762.250671,544.539917 761.904053,541.479614 761.206299,539.023926 
	C759.019775,531.328308 758.284790,530.760254 750.519043,530.976318 
	C746.877502,531.077637 743.217224,531.195740 739.589722,530.948547 
	C734.074707,530.572754 731.091248,533.270264 729.563843,538.264587 
	C729.254578,539.275757 728.387024,540.116150 727.422729,541.044800 
z"/>
<path fill="#0A0C11" opacity="1.000000" stroke="none" 
	d="
M780.117859,541.869019 
	C774.374634,527.460022 768.907532,512.854980 763.311279,497.897552 
	C764.383850,498.293976 766.233337,498.770844 766.680664,499.836365 
	C769.292664,506.058228 771.602417,512.408142 773.962769,518.734009 
	C776.242188,524.842896 778.561523,530.940979 780.623535,537.123779 
	C781.070923,538.465454 780.497314,540.147644 780.117859,541.869019 
z"/>
<path fill="#0A0C11" opacity="1.000000" stroke="none" 
	d="
M702.034668,543.908875 
	C699.265320,538.743774 696.909241,533.574768 694.411987,528.474915 
	C692.339722,524.242920 690.100952,520.092468 688.062683,516.151001 
	C691.436462,513.061218 694.659546,510.109406 698.049683,506.894470 
	C698.741943,507.795807 699.267151,508.960236 699.688599,509.894562 
	C696.677246,512.367249 693.961853,514.596985 691.053162,516.985413 
	C695.472107,525.391296 699.800110,533.557678 703.978210,541.800110 
	C704.156677,542.152283 702.948853,543.207275 702.034668,543.908875 
z"/>
<path fill="#0A0C11" opacity="1.000000" stroke="none" 
	d="
M408.082123,476.825195 
	C396.886963,467.570282 383.208862,466.361664 370.384094,473.994690 
	C371.295868,469.140137 375.983093,467.492340 379.630005,467.303833 
	C386.560699,466.945618 393.722046,467.735565 400.503357,469.289246 
	C403.593414,469.997192 408.567719,471.033020 408.082123,476.825195 
z"/>
<path fill="#0A0C11" opacity="1.000000" stroke="none" 
	d="
M661.451538,522.925293 
	C661.098022,521.233521 661.098022,519.467224 661.098022,517.827271 
	C661.509277,517.634277 661.656128,517.508667 661.808105,517.502197 
	C673.783386,516.991821 673.775635,516.996216 679.096863,527.874817 
	C680.314636,530.364319 681.606689,532.817383 682.880798,535.643555 
	C681.584595,535.187012 679.735413,534.681519 679.060608,533.503357 
	C677.064941,530.019470 675.618469,526.226562 673.797241,522.635681 
	C671.788086,518.674255 666.123230,518.818787 661.451538,522.925293 
z"/>
<path fill="#0A0C11" opacity="1.000000" stroke="none" 
	d="
M391.046509,482.480560 
	C396.122711,482.809814 398.327911,486.357849 399.479034,490.873718 
	C403.881287,490.873718 408.174469,490.873718 413.147217,490.873718 
	C412.411743,488.003326 411.743988,485.397278 411.066254,482.395142 
	C414.907959,482.296875 416.376099,485.024841 415.787323,488.142761 
	C415.063019,491.978546 411.966919,494.001495 408.032745,494.091766 
	C405.108948,494.158875 402.172363,493.855438 399.249420,493.618744 
	C398.669495,493.571808 397.909851,493.224487 397.599854,492.767090 
	C395.377472,489.487549 393.249817,486.143829 391.046509,482.480560 
z"/>
<path fill="#0A0C11" opacity="1.000000" stroke="none" 
	d="
M760.254883,487.814331 
	C757.823425,482.402679 755.615295,476.814972 753.309753,470.980713 
	C748.587891,470.980713 743.795227,470.980713 738.547729,471.062958 
	C739.440918,470.100067 740.781250,468.177490 742.138062,468.165771 
	C747.283264,468.121399 752.433838,468.695770 757.480347,469.031952 
	C758.569519,475.791870 759.523865,481.715088 760.254883,487.814331 
z"/>
<path fill="#020409" opacity="1.000000" stroke="none" 
	d="
M507.363525,541.939697 
	C507.045349,526.732178 507.045349,511.467926 507.045349,494.956329 
	C508.382507,497.522552 509.286774,499.257996 510.162903,501.373688 
	C509.749359,503.841003 509.075897,505.921326 509.027161,508.016205 
	C508.780273,518.630554 508.711029,529.249023 508.517792,539.864868 
	C508.505493,540.542358 507.972473,541.210449 507.363525,541.939697 
z"/>
<path fill="#020409" opacity="1.000000" stroke="none" 
	d="
M228.479706,486.002991 
	C230.041672,486.638672 231.259094,487.904297 232.493698,487.921265 
	C243.704071,488.075439 254.918015,487.955048 266.129395,488.067474 
	C267.992828,488.086182 269.848846,488.841705 271.902466,489.611786 
	C259.597565,489.977966 247.097992,490.050751 234.599976,489.943848 
	C232.326706,489.924408 229.945694,489.470245 227.825211,488.663055 
	C226.067993,487.994171 225.242920,486.590790 228.479706,486.002991 
z"/>
<path fill="#020409" opacity="1.000000" stroke="none" 
	d="
M293.275909,390.967743 
	C293.630920,389.951691 294.396454,388.948029 295.734589,387.193695 
	C292.586426,386.796387 290.093475,386.229614 287.596405,386.210846 
	C277.464355,386.134735 267.329895,386.329620 257.198730,386.213623 
	C252.127258,386.155579 247.711365,387.211182 244.250763,391.654144 
	C244.737137,390.112640 245.116409,387.452454 246.389481,386.916931 
	C249.820999,385.473389 253.628525,384.202087 257.295746,384.177124 
	C267.901031,384.104980 278.511658,384.653137 289.117828,385.024536 
	C290.918213,385.087585 292.839935,385.161926 294.453949,385.834778 
	C295.512390,386.276001 296.118164,387.803070 296.926666,388.843842 
	C295.846619,389.555939 294.766541,390.268036 293.275909,390.967743 
z"/>
<path fill="#0A0C11" opacity="1.000000" stroke="none" 
	d="
M698.903076,506.381470 
	C703.950562,494.590942 702.080872,483.802795 693.151123,475.484741 
	C694.217468,475.096710 696.276550,474.571045 696.466736,474.959686 
	C698.437622,478.988739 703.148193,481.464905 702.771118,486.902435 
	C702.546814,490.136658 704.127869,493.581451 703.554382,496.683258 
	C702.919556,500.116913 700.752502,503.267303 698.903076,506.381470 
z"/>
<path fill="#020409" opacity="1.000000" stroke="none" 
	d="
M682.019165,470.427856 
	C670.751282,470.886597 659.355957,470.928406 647.499390,471.042603 
	C648.286743,470.412384 649.503784,469.169708 650.789062,469.094574 
	C659.264160,468.599182 667.752441,468.226349 676.240051,468.128998 
	C678.116577,468.107483 680.007507,469.350311 682.019165,470.427856 
z"/>
<path fill="#0A0C11" opacity="1.000000" stroke="none" 
	d="
M366.643921,477.010376 
	C360.771210,486.003204 360.743011,494.920135 367.068237,504.522766 
	C360.440491,505.399200 361.017181,498.980927 360.673401,495.977478 
	C360.047302,490.507324 361.662018,484.735596 362.724396,479.162598 
	C362.897461,478.254639 365.034760,477.721069 366.643921,477.010376 
z"/>
<path fill="#0A0C11" opacity="1.000000" stroke="none" 
	d="
M617.715454,492.241486 
	C619.410156,492.770020 620.799438,494.040771 622.297974,494.186432 
	C625.687500,494.515839 629.130981,494.290039 633.798401,494.290039 
	C632.476868,490.195251 631.276245,486.475342 630.027100,482.380493 
	C635.275269,483.864319 633.705078,489.437683 635.898987,492.975952 
	C635.969055,493.089020 635.936401,493.327881 635.863220,493.458618 
	C632.882568,498.781555 627.753418,496.778839 623.386780,496.894226 
	C620.617065,496.967438 617.044312,497.117981 617.715454,492.241486 
z"/>
<path fill="#020409" opacity="1.000000" stroke="none" 
	d="
M235.882248,516.466248 
	C225.008820,516.893799 214.023560,517.051758 203.043274,516.884460 
	C201.094040,516.854858 199.165390,515.472961 197.058304,514.375610 
	C208.154938,514.359619 219.421906,514.644592 230.684586,515.048889 
	C232.390640,515.110168 234.076767,515.726257 235.882248,516.466248 
z"/>
<path fill="#0A0C11" opacity="1.000000" stroke="none" 
	d="
M377.312317,526.511475 
	C376.208496,524.941406 375.353241,523.041260 374.233154,520.552856 
	C371.493713,520.552856 368.241821,520.750000 365.025696,520.495422 
	C362.022491,520.257751 361.815033,521.896179 361.933289,524.546021 
	C361.063019,523.950378 359.427277,522.138245 359.580017,521.972351 
	C360.941345,520.493347 362.441681,518.759216 364.248840,518.173828 
	C366.351685,517.492676 368.812500,517.989319 371.104065,517.803345 
	C376.424469,517.371704 379.033630,520.712830 377.312317,526.511475 
z"/>
<path fill="#020409" opacity="1.000000" stroke="none" 
	d="
M553.338135,541.679871 
	C552.993896,518.968750 552.925781,495.947968 552.963013,472.469696 
	C553.377197,473.251709 553.952209,474.490540 553.955261,475.730804 
	C554.007996,496.965942 553.993286,518.201233 553.971924,539.436462 
	C553.971252,540.081177 553.738647,540.725647 553.338135,541.679871 
z"/>
<path fill="#0A0C11" opacity="1.000000" stroke="none" 
	d="
M566.592651,512.075073 
	C568.635681,520.779724 570.394653,529.533752 577.203918,536.559448 
	C576.131653,536.576843 574.504822,536.678894 573.749573,535.917053 
	C567.518921,529.631897 566.460815,521.324585 565.254150,513.118713 
	C565.214722,512.850403 565.899109,512.475708 566.592651,512.075073 
z"/>
<path fill="#020409" opacity="1.000000" stroke="none" 
	d="
M538.703491,471.129517 
	C539.062134,481.059570 539.019348,491.062531 538.911743,501.530060 
	C538.239258,501.155701 537.115479,500.324005 537.103577,499.476654 
	C536.980225,490.701141 537.009521,481.922791 537.096558,473.146271 
	C537.103027,472.494385 537.882080,471.850159 538.703491,471.129517 
z"/>
<path fill="#020409" opacity="1.000000" stroke="none" 
	d="
M492.465637,513.118286 
	C492.889923,522.690796 492.935181,532.375916 492.945007,542.528442 
	C492.281189,542.180298 491.117889,541.372070 491.106720,540.548218 
	C490.990509,531.972656 491.041565,523.394531 491.120178,514.817749 
	C491.125061,514.285950 491.750092,513.759766 492.465637,513.118286 
z"/>
<path fill="#020409" opacity="1.000000" stroke="none" 
	d="
M506.849670,470.758606 
	C502.497131,471.158417 498.090363,471.158417 492.973602,471.158417 
	C492.973602,474.368805 492.973602,477.721283 492.908875,481.533600 
	C490.298615,479.110199 490.265747,471.169495 492.809540,468.976807 
	C493.175446,468.661407 493.687378,468.201904 494.063049,468.259277 
	C498.314911,468.908447 502.553375,469.645386 506.849670,470.758606 
z"/>
<path fill="#0A0C11" opacity="1.000000" stroke="none" 
	d="
M631.429932,528.996033 
	C631.849243,525.839905 632.594788,522.679932 633.459229,519.015869 
	C628.573303,519.015869 624.279846,519.015869 619.527344,519.064941 
	C619.576660,518.349548 620.106689,516.909485 620.590088,516.924988 
	C625.546021,517.084045 630.494385,517.479126 636.819824,517.899780 
	C634.669556,522.610107 633.212891,525.801208 631.429932,528.996033 
z"/>
<path fill="#020409" opacity="1.000000" stroke="none" 
	d="
M845.301147,544.294861 
	C859.696167,543.926575 874.393555,543.845337 889.548035,543.878174 
	C889.441040,544.302307 888.875732,544.884888 888.313110,544.882385 
	C874.076416,544.819519 859.840088,544.695374 845.301147,544.294861 
z"/>
<path fill="#0A0C11" opacity="1.000000" stroke="none" 
	d="
M369.782379,539.893555 
	C374.779602,541.297607 379.527313,543.045715 384.637024,544.921692 
	C380.328583,548.543823 376.295288,544.240601 371.954163,543.808105 
	C371.037598,543.716858 370.334381,541.483826 369.782379,539.893555 
z"/>
<path fill="#0A0C11" opacity="1.000000" stroke="none" 
	d="
M686.146667,543.209106 
	C690.830505,543.141052 695.520386,543.476562 700.606079,543.913513 
	C697.975159,547.103577 688.939514,546.858826 686.146667,543.209106 
z"/>
<path fill="#020409" opacity="1.000000" stroke="none" 
	d="
M186.298904,618.282593 
	C194.596603,617.890503 203.195770,617.826172 211.792892,617.657654 
	C213.914734,617.616028 216.029953,617.235291 218.569046,616.988953 
	C217.668854,617.957214 216.329819,619.823425 215.029663,619.796753 
	C205.548584,619.602112 196.075333,619.026917 186.298904,618.282593 
z"/>
<path fill="#0A0C11" opacity="1.000000" stroke="none" 
	d="
M580.015137,539.333374 
	C585.146301,540.796631 590.277161,542.639343 595.715942,544.701538 
	C595.742249,545.481689 595.294983,546.558838 595.202820,546.529297 
	C590.265991,544.945374 585.348083,543.298157 580.473022,541.533997 
	C580.143738,541.414856 580.159607,540.342102 580.015137,539.333374 
z"/>
<path fill="#0A0C11" opacity="1.000000" stroke="none" 
	d="
M393.222534,545.251465 
	C398.097565,542.702881 403.199341,540.415283 408.622864,537.987305 
	C409.258667,540.893188 408.439178,542.358582 404.924225,543.266968 
	C401.111389,544.252380 397.743469,546.939026 393.222534,545.251465 
z"/>
<path fill="#020409" opacity="1.000000" stroke="none" 
	d="
M283.862366,452.843842 
	C277.255249,453.164551 270.596985,453.072479 263.471008,452.952881 
	C263.110168,452.613159 263.221252,452.026337 263.323364,452.027893 
	C270.153107,452.132050 276.982147,452.283600 283.862366,452.843842 
z"/>
<path fill="#0A0C11" opacity="1.000000" stroke="none" 
	d="
M660.843567,543.492310 
	C660.878479,538.634827 660.913452,533.777405 661.023804,528.460083 
	C661.725403,528.804749 662.809082,529.561096 662.899475,530.421814 
	C663.314636,534.375000 663.576294,538.356873 663.590698,542.329529 
	C663.593811,543.180847 662.340637,544.036621 661.293335,544.567688 
	C660.894897,543.994080 660.869263,543.743225 660.843567,543.492310 
z"/>
<path fill="#0A0C11" opacity="1.000000" stroke="none" 
	d="
M610.474976,529.680664 
	C606.430176,530.486633 602.020752,531.053833 597.284302,531.375732 
	C598.220947,530.422546 599.453857,529.187622 600.754395,529.111694 
	C603.856140,528.930725 606.989746,529.296814 610.474976,529.680664 
z"/>
<path fill="#020409" opacity="1.000000" stroke="none" 
	d="
M552.876831,470.820892 
	C548.608765,471.140564 544.290955,471.066010 539.515625,471.047607 
	C539.222595,470.346863 539.450562,468.920441 539.542175,468.929138 
	C543.977966,469.350403 548.401855,469.895447 552.876831,470.820892 
z"/>
<path fill="#0A0C11" opacity="1.000000" stroke="none" 
	d="
M766.131226,544.291138 
	C770.363892,543.859619 774.668823,543.828003 779.425171,543.723816 
	C779.667786,544.243591 779.441345,545.358032 779.252686,545.351624 
	C774.900452,545.205200 770.552368,544.936768 766.131226,544.291138 
z"/>
<path fill="#0A0C11" opacity="1.000000" stroke="none" 
	d="
M606.144043,545.270752 
	C609.730713,544.006470 613.476746,543.049316 617.610474,542.084961 
	C617.887634,542.721558 617.865784,543.894958 617.653442,543.930542 
	C613.883850,544.561951 610.091125,545.055054 606.144043,545.270752 
z"/>
<path fill="#0A0C11" opacity="1.000000" stroke="none" 
	d="
M713.098511,544.413452 
	C717.314026,543.659485 721.629761,543.290649 726.196655,542.596497 
	C726.085571,543.177856 725.748230,544.859192 725.357239,544.871765 
	C721.309326,545.001831 717.252869,544.862793 713.098511,544.413452 
z"/>
<path fill="#020409" opacity="1.000000" stroke="none" 
	d="
M660.403442,543.609863 
	C660.869263,543.743225 660.894897,543.994080 660.959106,544.621277 
	C656.731140,544.921326 652.464722,544.845154 648.097900,544.384521 
	C651.986145,543.909119 655.974670,543.818237 660.403442,543.609863 
z"/>
<path fill="#020409" opacity="1.000000" stroke="none" 
	d="
M886.293701,512.873291 
	C885.936890,509.266510 885.978210,505.590668 886.016113,501.454529 
	C889.496704,504.743530 888.526001,508.749023 886.293701,512.873291 
z"/>
<path fill="#020409" opacity="1.000000" stroke="none" 
	d="
M494.091583,544.355225 
	C497.693329,543.910950 501.393097,543.854553 505.551147,543.860840 
	C502.302216,547.552917 498.263641,546.403625 494.091583,544.355225 
z"/>
<path fill="#020409" opacity="1.000000" stroke="none" 
	d="
M538.510681,510.078613 
	C538.847839,513.191040 538.847839,516.376709 538.847839,520.141724 
	C537.356628,517.780884 536.130493,515.839600 534.813843,513.555237 
	C535.873413,512.192017 537.023499,511.171967 538.510681,510.078613 
z"/>
<path fill="#0A0C11" opacity="1.000000" stroke="none" 
	d="
M361.723206,527.253113 
	C363.609436,530.093811 365.229553,533.186157 366.978882,536.604126 
	C363.008575,535.890686 360.904907,532.382141 361.723206,527.253113 
z"/>
<path fill="#0A0C11" opacity="1.000000" stroke="none" 
	d="
M626.247681,536.955078 
	C627.044250,535.274170 628.241211,533.602661 629.700745,531.795288 
	C630.955078,532.607483 631.946838,533.555603 633.742371,535.272095 
	C630.669006,536.005310 628.658569,536.484924 626.247681,536.955078 
z"/>
<path fill="#0A0C11" opacity="1.000000" stroke="none" 
	d="
M618.748169,519.111694 
	C617.717529,521.847412 616.320251,524.624817 614.616211,527.594482 
	C612.729553,523.523499 615.939331,521.519470 618.748169,519.111694 
z"/>
<path fill="#020409" opacity="1.000000" stroke="none" 
	d="
M220.088806,569.690674 
	C218.489044,571.883240 216.573044,573.875000 214.351013,576.001404 
	C214.162949,572.376953 216.120010,570.202820 220.088806,569.690674 
z"/>
<path fill="#020409" opacity="1.000000" stroke="none" 
	d="
M204.089905,585.694580 
	C202.489319,587.887878 200.573120,589.878052 198.351532,592.004517 
	C198.163574,588.380676 200.113770,586.199402 204.089905,585.694580 
z"/>
<path fill="#0A0C11" opacity="1.000000" stroke="none" 
	d="
M619.009827,542.006958 
	C620.550964,540.613342 622.427368,539.354797 624.624451,537.972473 
	C624.971619,541.749084 623.053955,543.113770 619.009827,542.006958 
z"/>
<path fill="#020409" opacity="1.000000" stroke="none" 
	d="
M251.776672,538.038818 
	C250.325058,539.992249 248.492950,541.933044 246.354889,544.011230 
	C246.032227,540.536499 247.921051,538.588623 251.776672,538.038818 
z"/>
<path fill="#020409" opacity="1.000000" stroke="none" 
	d="
M258.763031,531.033936 
	C257.316071,532.989502 255.489136,534.933594 253.356461,537.015747 
	C253.026505,533.543091 254.909348,531.590942 258.763031,531.033936 
z"/>
<path fill="#020409" opacity="1.000000" stroke="none" 
	d="
M234.506927,602.204041 
	C235.507401,600.681335 236.819626,599.301880 238.423782,597.789795 
	C238.012115,599.715210 239.533371,603.621948 234.506927,602.204041 
z"/>
<path fill="#020409" opacity="1.000000" stroke="none" 
	d="
M281.699951,499.922577 
	C284.279724,501.562866 286.652374,503.544006 283.381897,507.003662 
	C282.534607,504.862396 282.014526,502.562683 281.699951,499.922577 
z"/>
<path fill="#0A0C11" opacity="1.000000" stroke="none" 
	d="
M763.401978,496.168396 
	C762.332642,494.455261 761.601074,492.618530 760.819336,490.432800 
	C760.973267,490.066956 761.177490,490.050171 761.690796,490.016693 
	C762.000000,490.000000 762.004883,490.004089 762.004883,490.004089 
	C762.583191,492.017670 763.161499,494.031250 763.401978,496.168396 
z"/>
<path fill="#020409" opacity="1.000000" stroke="none" 
	d="
M492.487610,501.101990 
	C492.886932,503.046814 492.929718,505.087311 492.908081,507.561096 
	C489.873077,506.015381 490.514374,503.657623 492.487610,501.101990 
z"/>
<path fill="#020409" opacity="1.000000" stroke="none" 
	d="
M267.731934,522.050171 
	C266.533203,523.735352 264.954041,525.402344 263.129150,527.244446 
	C261.977631,523.637329 264.556732,522.745239 267.731934,522.050171 
z"/>
<path fill="#020409" opacity="1.000000" stroke="none" 
	d="
M185.101944,500.942871 
	C185.627762,499.128998 186.480881,497.155396 187.643494,495.050171 
	C187.111755,496.873474 186.270493,498.828339 185.101944,500.942871 
z"/>
<path fill="#020409" opacity="1.000000" stroke="none" 
	d="
M646.604980,515.333008 
	C646.908020,519.034058 646.953674,523.050659 646.931396,527.524902 
	C646.691467,523.871216 646.519531,519.759888 646.604980,515.333008 
z"/>
<path fill="#020409" opacity="1.000000" stroke="none" 
	d="
M194.754913,595.034424 
	C193.642426,596.651245 192.146271,598.257874 190.346710,599.998535 
	C189.903687,597.089172 191.231247,595.288879 194.754913,595.034424 
z"/>
<path fill="#020409" opacity="1.000000" stroke="none" 
	d="
M540.284912,544.270874 
	C543.695557,543.918457 547.398682,543.854614 551.557739,543.873291 
	C548.201538,544.156982 544.389404,544.358215 540.284912,544.270874 
z"/>
<path fill="#020409" opacity="1.000000" stroke="none" 
	d="
M180.750793,609.034851 
	C179.639816,610.650879 178.146149,612.257935 176.345795,613.990662 
	C175.914215,611.086182 177.242142,609.291504 180.750793,609.034851 
z"/>
<path fill="#0A0C11" opacity="1.000000" stroke="none" 
	d="
M598.085388,545.428772 
	C599.716736,545.020874 601.433533,544.969666 603.575806,544.979492 
	C602.441589,548.292908 600.351440,547.392883 598.085388,545.428772 
z"/>
<path fill="#020409" opacity="1.000000" stroke="none" 
	d="
M277.039551,495.235291 
	C278.393372,496.103790 279.735596,497.362701 281.250122,498.865051 
	C278.070557,500.328552 277.494598,498.046051 277.039551,495.235291 
z"/>
<path fill="#0A0C11" opacity="1.000000" stroke="none" 
	d="
M629.061646,479.884827 
	C627.831299,479.177368 626.877930,478.261688 625.758301,477.117493 
	C628.689209,475.334045 629.599792,476.717865 629.061646,479.884827 
z"/>
<path fill="#020409" opacity="1.000000" stroke="none" 
	d="
M226.515961,610.006287 
	C227.439667,608.656982 228.729675,607.275269 230.289505,605.728638 
	C229.333633,607.033752 228.107956,608.503845 226.515961,610.006287 
z"/>
<path fill="#020409" opacity="1.000000" stroke="none" 
	d="
M800.291016,544.297607 
	C803.041931,543.926331 806.083435,543.832703 809.573242,543.833618 
	C806.874878,544.143860 803.728333,544.359619 800.291016,544.297607 
z"/>
<path fill="#020409" opacity="1.000000" stroke="none" 
	d="
M534.839722,512.880676 
	C533.611877,511.727234 532.443909,510.189453 531.225952,508.330933 
	C532.417236,509.505585 533.658386,511.000977 534.839722,512.880676 
z"/>
<path fill="#020409" opacity="1.000000" stroke="none" 
	d="
M281.772278,508.042603 
	C280.990112,509.328613 279.817963,510.603485 278.346283,512.010864 
	C279.158600,510.772766 280.270416,509.402100 281.772278,508.042603 
z"/>
<path fill="#020409" opacity="1.000000" stroke="none" 
	d="
M271.753296,518.036255 
	C270.982727,519.316101 269.824768,520.587341 268.367798,521.985229 
	C269.167786,520.750549 270.266876,519.389099 271.753296,518.036255 
z"/>
<path fill="#020409" opacity="1.000000" stroke="none" 
	d="
M212.764557,577.040894 
	C211.983246,578.324280 210.813156,579.597412 209.342819,580.999878 
	C210.153656,579.763062 211.264725,578.396851 212.764557,577.040894 
z"/>
<path fill="#0A0C11" opacity="1.000000" stroke="none" 
	d="
M386.020264,482.243591 
	C386.840973,481.855316 387.704102,481.771667 388.787048,481.835327 
	C388.025482,482.171204 387.044098,482.359711 386.020264,482.243591 
z"/>
<path fill="#0A0C11" opacity="1.000000" stroke="none" 
	d="
M387.072998,545.436768 
	C388.069519,545.066162 389.137268,545.026245 390.601593,545.049133 
	C389.713501,545.330444 388.428864,545.549011 387.072998,545.436768 
z"/>
<path fill="#020409" opacity="1.000000" stroke="none" 
	d="
M509.903656,475.098480 
	C508.930298,474.268066 507.985291,473.009033 506.943420,471.425293 
	C509.671448,470.737427 510.148010,472.404327 509.903656,475.098480 
z"/>
<path fill="#020409" opacity="1.000000" stroke="none" 
	d="
M521.777100,493.039093 
	C520.869507,492.389465 520.266602,491.554535 519.541870,490.431519 
	C520.307312,491.046875 521.194519,491.950317 521.777100,493.039093 
z"/>
<path fill="#020409" opacity="1.000000" stroke="none" 
	d="
M239.046280,597.756531 
	C239.536179,596.758606 240.411362,595.804565 241.577698,594.701355 
	C241.056412,595.634949 240.243988,596.717712 239.046280,597.756531 
z"/>
<path fill="#020409" opacity="1.000000" stroke="none" 
	d="
M233.755417,556.038574 
	C233.306168,556.994629 232.471069,557.944458 231.342712,559.021240 
	C231.822830,558.109619 232.596207,557.070984 233.755417,556.038574 
z"/>
<path fill="#020409" opacity="1.000000" stroke="none" 
	d="
M174.074341,617.222046 
	C174.863419,617.105042 175.691025,617.319336 176.774078,617.727539 
	C176.057312,617.798767 175.085083,617.676086 174.074341,617.222046 
z"/>
<path fill="#020409" opacity="1.000000" stroke="none" 
	d="
M246.052246,590.905396 
	C246.518005,589.887207 247.399124,588.891174 248.577042,587.739624 
	C248.071762,588.698608 247.269669,589.813049 246.052246,590.905396 
z"/>
<path fill="#0A0C11" opacity="1.000000" stroke="none" 
	d="
M891.286377,479.744324 
	C890.964111,478.280334 890.905334,476.562439 890.934570,474.422668 
	C891.198303,475.830658 891.374084,477.660553 891.286377,479.744324 
z"/>
<path fill="#020409" opacity="1.000000" stroke="none" 
	d="
M492.532318,485.064423 
	C492.887024,485.754852 492.929962,486.503510 492.908325,487.622803 
	C492.636017,487.036530 492.428284,486.079559 492.532318,485.064423 
z"/>
<path fill="#020409" opacity="1.000000" stroke="none" 
	d="
M188.297089,494.955750 
	C188.737854,494.011566 189.558182,493.069824 190.670258,492.006592 
	C190.200226,492.909485 189.438431,493.933868 188.297089,494.955750 
z"/>
<path fill="#020409" opacity="1.000000" stroke="none" 
	d="
M646.625549,476.281250 
	C646.912842,477.724274 646.958435,479.431427 646.934998,481.560669 
	C646.705322,480.170319 646.544556,478.357849 646.625549,476.281250 
z"/>
<path fill="#020409" opacity="1.000000" stroke="none" 
	d="
M275.761963,514.039490 
	C275.309174,514.993286 274.470856,515.939514 273.338196,517.010010 
	C273.821350,516.100098 274.598877,515.066040 275.761963,514.039490 
z"/>
<path fill="#020409" opacity="1.000000" stroke="none" 
	d="
M330.329590,504.948761 
	C330.011841,504.249054 330.017517,503.499725 330.083160,502.380005 
	C330.313080,502.972778 330.483063,503.935974 330.329590,504.948761 
z"/>
<path fill="#0A0C11" opacity="1.000000" stroke="none" 
	d="
M684.081360,539.097961 
	C684.768921,539.854858 685.425781,541.016174 686.141724,542.520630 
	C685.484070,541.743347 684.767395,540.622864 684.081360,539.097961 
z"/>
<path fill="#020409" opacity="1.000000" stroke="none" 
	d="
M327.118774,509.941589 
	C327.245209,509.322845 327.722076,508.723969 328.461853,507.998993 
	C328.306244,508.569092 327.887756,509.265289 327.118774,509.941589 
z"/>
<path fill="#020409" opacity="1.000000" stroke="none" 
	d="
M196.146332,487.054565 
	C196.396042,486.352417 196.902237,485.742737 197.690674,485.027527 
	C197.449539,485.663666 196.926178,486.405334 196.146332,487.054565 
z"/>
<path fill="#020409" opacity="1.000000" stroke="none" 
	d="
M230.913940,605.640930 
	C231.212509,604.847412 231.862534,604.133911 232.780548,603.305176 
	C232.454163,604.033569 231.859787,604.877197 230.913940,605.640930 
z"/>
<path fill="#020409" opacity="1.000000" stroke="none" 
	d="
M199.260559,483.978088 
	C199.416473,483.381287 199.903000,482.784882 200.663574,482.082214 
	C200.488785,482.643463 200.039978,483.311005 199.260559,483.978088 
z"/>
<path fill="#020409" opacity="1.000000" stroke="none" 
	d="
M526.910767,500.794922 
	C526.254028,500.341187 525.624878,499.511719 524.900757,498.374084 
	C525.516724,498.850372 526.227539,499.634796 526.910767,500.794922 
z"/>
<path fill="#020409" opacity="1.000000" stroke="none" 
	d="
M528.939941,503.846375 
	C528.278931,503.396149 527.634583,502.567322 526.906738,501.424927 
	C527.534363,501.896820 528.245483,502.682312 528.939941,503.846375 
z"/>
<path fill="#020409" opacity="1.000000" stroke="none" 
	d="
M206.745300,583.041077 
	C206.533035,583.728149 205.932144,584.412781 205.108551,585.262878 
	C205.376129,584.631714 205.866409,583.835205 206.745300,583.041077 
z"/>
<path fill="#020409" opacity="1.000000" stroke="none" 
	d="
M222.757950,567.042419 
	C222.538834,567.729492 221.930344,568.412048 221.097992,569.260376 
	C221.372284,568.630127 221.870438,567.833984 222.757950,567.042419 
z"/>
<path fill="#0A0C11" opacity="1.000000" stroke="none" 
	d="
M410.896027,480.985321 
	C410.219055,480.502350 409.570465,479.621460 408.811646,478.424408 
	C409.442413,478.934631 410.183411,479.760986 410.896027,480.985321 
z"/>
<path fill="#020409" opacity="1.000000" stroke="none" 
	d="
M241.089752,548.698975 
	C240.802338,549.567993 240.186111,550.254822 239.309296,551.044434 
	C239.619446,550.270386 240.190201,549.393555 241.089752,548.698975 
z"/>
<path fill="#020409" opacity="1.000000" stroke="none" 
	d="
M243.771225,546.045288 
	C243.550568,546.734680 242.939148,547.417175 242.102570,548.264648 
	C242.378448,547.632507 242.879456,546.835449 243.771225,546.045288 
z"/>
<path fill="#020409" opacity="1.000000" stroke="none" 
	d="
M262.093964,527.699219 
	C261.804260,528.566284 261.185730,529.250549 260.306702,530.037720 
	C260.619202,529.265869 261.192169,528.391174 262.093964,527.699219 
z"/>
<path fill="#020409" opacity="1.000000" stroke="none" 
	d="
M237.418579,397.992645 
	C237.074585,398.670990 236.375748,399.396393 235.397659,400.245789 
	C235.766830,399.593079 236.415283,398.816406 237.418579,397.992645 
z"/>
<path fill="#0A0C11" opacity="1.000000" stroke="none" 
	d="
M367.062378,537.276428 
	C367.745300,537.477661 368.419617,538.065002 369.250366,538.875488 
	C368.622437,538.619995 367.838074,538.141296 367.062378,537.276428 
z"/>
<path fill="#020409" opacity="1.000000" stroke="none" 
	d="
M240.071930,517.792480 
	C239.650009,517.995117 239.362213,517.852905 239.027100,517.394043 
	C239.192764,516.696350 239.450775,516.224304 239.708771,515.752258 
	C239.859528,516.347778 240.010284,516.943237 240.071930,517.792480 
z"/>
<path fill="#020409" opacity="1.000000" stroke="none" 
	d="
M330.060425,499.904907 
	C329.546082,499.591980 329.275635,499.103882 328.925903,498.333008 
	C329.332520,498.610046 329.818420,499.169861 330.060425,499.904907 
z"/>
<path fill="#020409" opacity="1.000000" stroke="none" 
	d="
M685.909729,471.515015 
	C685.330933,471.672485 684.669312,471.493958 683.807434,471.138000 
	C684.347107,471.033386 685.086975,471.106201 685.909729,471.515015 
z"/>
<path fill="#020409" opacity="1.000000" stroke="none" 
	d="
M534.953003,538.154297 
	C535.467712,538.331970 535.887390,538.796326 536.437500,539.558167 
	C535.997986,539.384094 535.428040,538.912537 534.953003,538.154297 
z"/>
<path fill="#0A0C11" opacity="1.000000" stroke="none" 
	d="
M611.540833,528.582092 
	C611.374634,528.771729 611.236450,528.743408 611.154785,528.738403 
	C611.284424,528.619751 611.495728,528.506104 611.540833,528.582092 
z"/>
<path fill="#020409" opacity="1.000000" stroke="none" 
	d="
M682.595703,470.177704 
	C682.354492,470.169098 682.309753,470.219971 682.300293,470.183075 
	C682.472839,470.159576 682.654846,470.172943 682.595703,470.177704 
z"/>
<path fill="#0A0C11" opacity="1.000000" stroke="none" 
	d="
M761.997559,489.997009 
	C762.081482,489.961426 762.167847,489.928802 762.129517,489.950134 
	C762.004883,490.004089 762.000000,490.000000 761.997559,489.997009 
z"/>
<path fill="#0A0C11" opacity="1.000000" stroke="none" 
	d="
M683.158997,536.993896 
	C683.374207,536.973145 683.654358,537.202271 683.921936,537.711853 
	C683.680847,537.742859 683.452393,537.493347 683.158997,536.993896 
z"/>
<path fill="#0A111B" opacity="1.000000" stroke="none" 
	d="
M661.103516,501.998962 
	C661.051392,497.306030 660.999268,492.613068 661.427673,487.399658 
	C669.313721,485.275757 676.714600,485.705109 684.113708,486.929321 
	C684.113708,486.929321 684.027954,486.972961 684.028564,487.351959 
	C684.368896,492.199829 684.708618,496.668701 685.048340,501.137573 
	C685.044189,501.485260 684.893982,501.750153 683.984619,501.980896 
	C675.948914,502.019348 668.526184,502.009155 661.103516,501.998962 
z"/>
<path fill="#0A0C11" opacity="1.000000" stroke="none" 
	d="
M684.004517,486.581726 
	C676.714600,485.705109 669.313721,485.275757 661.507446,486.939453 
	C661.038391,485.846039 660.970093,484.692383 660.864685,482.912292 
	C668.699097,484.067963 676.852173,480.458099 684.004517,486.581726 
z"/>
<path fill="#0A0C11" opacity="1.000000" stroke="none" 
	d="
M661.030640,502.418274 
	C668.526184,502.009155 675.948914,502.019348 683.755005,502.039001 
	C681.272278,503.342194 678.505371,505.333466 675.515747,505.758514 
	C671.493835,506.330383 667.286865,505.837189 663.191467,505.455505 
	C662.372620,505.379211 661.698547,503.750488 661.030640,502.418274 
z"/>
<path fill="#0A0C11" opacity="1.000000" stroke="none" 
	d="
M685.398926,500.972015 
	C684.708618,496.668701 684.368896,492.199829 684.050476,487.309143 
	C688.007141,491.047333 688.464111,494.838409 685.398926,500.972015 
z"/>
<path fill="#0A111B" opacity="1.000000" stroke="none" 
	d="
M745.982056,515.878479 
	C742.396606,515.878235 739.290588,515.878235 735.692078,515.878235 
	C739.079895,506.098999 742.292664,496.825165 745.815735,486.655487 
	C749.306030,496.646301 752.554199,505.944000 756.024902,515.878723 
	C752.605103,515.878723 749.533264,515.878723 745.982056,515.878479 
z"/>
</svg>