<?xml version="1.0" encoding="UTF-8"?>
<svg version="1.1" xmlns="http://www.w3.org/2000/svg" viewBox="0 150 500 200">
<path d="M0 0 C0 0.99 0 1.98 0 3 C-0.66 3 -1.32 3 -2 3 C-2 3.66 -2 4.32 -2 5 C-3.98260426 6.68732277 -5.9832342 8.35366057 -8 10 C-8.33 10.66 -8.66 11.32 -9 12 C-9.66 12 -10.32 12 -11 12 C-11 12.66 -11 13.32 -11 14 C-11.66 14 -12.32 14 -13 14 C-13 14.66 -13 15.32 -13 16 C-13.66 16 -14.32 16 -15 16 C-15 16.66 -15 17.32 -15 18 C-17.375 20.625 -17.375 20.625 -20 23 C-20.66 23 -21.32 23 -22 23 C-22 23.66 -22 24.32 -22 25 C-22.66 25 -23.32 25 -24 25 C-24 25.66 -24 26.32 -24 27 C-24.66 27 -25.32 27 -26 27 C-26 27.66 -26 28.32 -26 29 C-26.66 29 -27.32 29 -28 29 C-28 29.66 -28 30.32 -28 31 C-30.375 33.625 -30.375 33.625 -33 36 C-33.66 36 -34.32 36 -35 36 C-35 36.66 -35 37.32 -35 38 C-35.66 38 -36.32 38 -37 38 C-37 38.66 -37 39.32 -37 40 C-37.66 40 -38.32 40 -39 40 C-39 40.66 -39 41.32 -39 42 C-39.66 42 -40.32 42 -41 42 C-41 42.66 -41 43.32 -41 44 C-42.609375 45.55078125 -42.609375 45.55078125 -44.75 47.3125 C-47.90170177 49.98362313 -50.55769329 52.64182828 -53 56 C-49.58156795 60.34290997 -49.58156795 60.34290997 -44.72363281 62.58886719 C-42.17708846 62.81175285 -39.68109674 62.88269909 -37.125 62.875 C-36.24585938 62.895625 -35.36671875 62.91625 -34.4609375 62.9375 C-32.30769964 62.98430952 -30.15374237 62.99573516 -28 63 C-28 69.23551472 -31.95185881 71.91799767 -36.15551758 76.18359375 C-40.16411481 79.96492796 -42.95284454 81.97192335 -48.6875 82 C-52.35041704 81.60347312 -53.88225597 81.07849602 -57 79 C-57 78.34 -57 77.68 -57 77 C-57.66 77 -58.32 77 -59 77 C-60.625 75.625 -60.625 75.625 -62 74 C-62 73.34 -62 72.68 -62 72 C-62.66 72 -63.32 72 -64 72 C-64 71.34 -64 70.68 -64 70 C-64.66 70 -65.32 70 -66 70 C-66 69.34 -66 68.68 -66 68 C-66.66 68 -67.32 68 -68 68 C-68 67.34 -68 66.68 -68 66 C-68.66 66 -69.32 66 -70 66 C-70 65.34 -70 64.68 -70 64 C-70.66 64 -71.32 64 -72 64 C-72 63.34 -72 62.68 -72 62 C-72.99 61.67 -73.98 61.34 -75 61 C-75 60.34 -75 59.68 -75 59 C-75.66 59 -76.32 59 -77 59 C-78.125 54.25 -78.125 54.25 -77 52 C-76.34 52 -75.68 52 -75 52 C-75 51.34 -75 50.68 -75 50 C-73.625 48.375 -73.625 48.375 -72 47 C-71.34 47 -70.68 47 -70 47 C-70 46.34 -70 45.68 -70 45 C-69.34 45 -68.68 45 -68 45 C-68 44.34 -68 43.68 -68 43 C-67.34 43 -66.68 43 -66 43 C-66 42.34 -66 41.68 -66 41 C-65.34 41 -64.68 41 -64 41 C-64 40.34 -64 39.68 -64 39 C-63.34 39 -62.68 39 -62 39 C-62 38.34 -62 37.68 -62 37 C-60.63671875 35.66015625 -60.63671875 35.66015625 -58.6875 34.0625 C-54.9842528 30.91673088 -51.49761908 27.61924083 -48.0625 24.1875 C-47.5780542 23.70740479 -47.0936084 23.22730957 -46.59448242 22.73266602 C-43.96667347 20.11528876 -43.96667347 20.11528876 -42 17 C-41.34 17 -40.68 17 -40 17 C-40 16.34 -40 15.68 -40 15 C-39.34 15 -38.68 15 -38 15 C-38 14.34 -38 13.68 -38 13 C-37.34 13 -36.68 13 -36 13 C-36 12.34 -36 11.68 -36 11 C-34.390625 9.4140625 -34.390625 9.4140625 -32.25 7.625 C-30.03478283 5.76257667 -28.08225698 4.10460533 -26.2890625 1.82421875 C-22.81751481 -0.94235595 -19.4502099 -0.71118248 -15.125 -0.8125 C-14.33480469 -0.85052734 -13.54460937 -0.88855469 -12.73046875 -0.92773438 C-8.3430995 -1.09928708 -4.32216174 -0.91029451 0 0 Z " fill="#F8FAFC" transform="translate(144,188)"/>
<path d="M0 0 C0.66 0.33 1.32 0.66 2 1 C2 1.66 2 2.32 2 3 C3.32 3.66 4.64 4.32 6 5 C6 5.66 6 6.32 6 7 C6.928125 7.37125 6.928125 7.37125 7.875 7.75 C10.40358627 9.23740369 10.71839004 10.43678009 12 13 C13.33105027 13.67121338 14.66475098 14.33717854 16 15 C17.921875 16.515625 17.921875 16.515625 19.75 18.25 C20.36359375 18.81203125 20.9771875 19.3740625 21.609375 19.953125 C23.54986511 22.80935202 23.35241268 24.59633143 23 28 C21.39526367 30.31762695 21.39526367 30.31762695 19.16796875 32.48828125 C18.36939453 33.27654297 17.57082031 34.06480469 16.74804688 34.87695312 C15.90306641 35.68068359 15.05808594 36.48441406 14.1875 37.3125 C13.35412109 38.13556641 12.52074219 38.95863281 11.66210938 39.80664062 C5.46416823 45.84527726 5.46416823 45.84527726 2 47 C1.30199696 48.31719929 0.63940252 49.65337955 0 51 C-1.65625 52.921875 -1.65625 52.921875 -3.5 54.75 C-4.41265625 55.67039062 -4.41265625 55.67039062 -5.34375 56.609375 C-7 58 -7 58 -9 58 C-9.24169922 58.5669458 -9.48339844 59.1338916 -9.73242188 59.71801758 C-11.24979201 62.44969297 -13.06578781 64.30803602 -15.28125 66.51171875 C-16.12300781 67.35154297 -16.96476562 68.19136719 -17.83203125 69.05664062 C-18.71246094 69.92482422 -19.59289062 70.79300781 -20.5 71.6875 C-21.38042969 72.56728516 -22.26085937 73.44707031 -23.16796875 74.35351562 C-30.80406755 81.936992 -30.80406755 81.936992 -34.15478516 82.11352539 C-35.45875244 82.10567017 -35.45875244 82.10567017 -36.7890625 82.09765625 C-37.73007813 82.09443359 -38.67109375 82.09121094 -39.640625 82.08789062 C-40.62546875 82.07951172 -41.6103125 82.07113281 -42.625 82.0625 C-43.61757812 82.05798828 -44.61015625 82.05347656 -45.6328125 82.04882812 C-48.0886016 82.03702145 -50.54427104 82.020554 -53 82 C-53 78 -53 78 -51.5390625 76.078125 C-50.90742187 75.47484375 -50.27578125 74.8715625 -49.625 74.25 C-48.99851562 73.63640625 -48.37203125 73.0228125 -47.7265625 72.390625 C-46 71 -46 71 -44 71 C-44 70.34 -44 69.68 -44 69 C-43.34 69 -42.68 69 -42 69 C-42 68.34 -42 67.68 -42 67 C-41.34 67 -40.68 67 -40 67 C-40 66.34 -40 65.68 -40 65 C-39.34 65 -38.68 65 -38 65 C-38 64.34 -38 63.68 -38 63 C-37.34 63 -36.68 63 -36 63 C-36 62.34 -36 61.68 -36 61 C-35.34 61 -34.68 61 -34 61 C-34 60.34 -34 59.68 -34 59 C-32.01739574 57.31267723 -30.0167658 55.64633943 -28 54 C-27.67 53.34 -27.34 52.68 -27 52 C-26.34 52 -25.68 52 -25 52 C-25 51.34 -25 50.68 -25 50 C-24.34 50 -23.68 50 -23 50 C-23 49.34 -23 48.68 -23 48 C-22.34 48 -21.68 48 -21 48 C-21 47.34 -21 46.68 -21 46 C-20.34 46 -19.68 46 -19 46 C-19 45.34 -19 44.68 -19 44 C-18.34 44 -17.68 44 -17 44 C-17 43.34 -17 42.68 -17 42 C-16.34 42 -15.68 42 -15 42 C-15 41.34 -15 40.68 -15 40 C-14.34 40 -13.68 40 -13 40 C-12.79375 39.46375 -12.5875 38.9275 -12.375 38.375 C-10.46749574 35.08021991 -7.95180616 32.40636372 -5 30 C-4.34 30 -3.68 30 -3 30 C-3 29.34 -3 28.68 -3 28 C-2.34 28 -1.68 28 -1 28 C-1.31479028 25.16688745 -2.18663106 23.74182703 -3.875 21.40625 C-8.37066431 17.94458848 -12.2822278 18.22092676 -17.8125 18.1875 C-19.28106445 18.14979492 -19.28106445 18.14979492 -20.77929688 18.11132812 C-23.18660197 18.05261337 -25.59209562 18.0162202 -28 18 C-26.625 15.5 -26.625 15.5 -25 13 C-24.34 13 -23.68 13 -23 13 C-23 12.34 -23 11.68 -23 11 C-22.34 11 -21.68 11 -21 11 C-21 10.34 -21 9.68 -21 9 C-20.34 9 -19.68 9 -19 9 C-19 8.34 -19 7.68 -19 7 C-18.34 7 -17.68 7 -17 7 C-17 6.34 -17 5.68 -17 5 C-11.99326222 -0.68332396 -7.33912524 -0.83944243 0 0 Z " fill="#F8FAFC" transform="translate(138,220)"/>
<path d="M0 0 C1.87451172 1.94946289 1.87451172 1.94946289 3.4296875 4.47265625 C3.996875 5.37177734 4.5640625 6.27089844 5.1484375 7.19726562 C5.71820313 8.14279297 6.28796875 9.08832031 6.875 10.0625 C7.46796875 11.01189453 8.0609375 11.96128906 8.671875 12.93945312 C10.13176885 15.28234729 11.56818469 17.63984152 13 20 C13.33 13.4 13.66 6.8 14 0 C16.64 0 19.28 0 22 0 C22 11.88 22 23.76 22 36 C14 36 14 36 11.64453125 33.875 C11.03996094 32.92625 10.43539063 31.9775 9.8125 31 C9.20019531 30.071875 8.58789062 29.14375 7.95703125 28.1875 C7.31121094 27.135625 6.66539062 26.08375 6 25 C3.525 21.04 3.525 21.04 1 17 C0.67 23.27 0.34 29.54 0 36 C-2.64 36 -5.28 36 -8 36 C-8 24.12 -8 12.24 -8 0 C-5.01785942 -1.49107029 -3.16516001 -0.86270246 0 0 Z " fill="#F8FAFC" transform="translate(248,229)"/>
<path d="M0 0 C3.34125 -0.103125 6.6825 -0.20625 10.125 -0.3125 C11.68758545 -0.38078003 11.68758545 -0.38078003 13.28173828 -0.45043945 C17.68910128 -0.51613875 21.03348258 -0.52821899 24.6171875 2.23828125 C27.9807389 6.13669247 28.255311 8.98496246 28 14 C27.04694753 17.65336779 25.66932361 19.43334268 23 22 C24.54269924 26.72065967 26.07794619 31.41664092 28 36 C25.03 36 22.06 36 19 36 C18.43732422 34.82630859 18.43732422 34.82630859 17.86328125 33.62890625 C17.35152344 32.61699219 16.83976562 31.60507812 16.3125 30.5625 C15.56419922 29.04849609 15.56419922 29.04849609 14.80078125 27.50390625 C13.00785816 24.41087373 13.00785816 24.41087373 8 24 C8 27.96 8 31.92 8 36 C5.36 36 2.72 36 0 36 C0 24.12 0 12.24 0 0 Z M8 7 C8 10.3 8 13.6 8 17 C12.50901363 17.17957899 12.50901363 17.17957899 17 17 C19.31563087 15.11499729 19.31563087 15.11499729 19.25 12 C19.31563087 8.88500271 19.31563087 8.88500271 17 7 C13.98173347 6.72759327 11.03629378 6.91324875 8 7 Z " fill="#F8FAFC" transform="translate(315,229)"/>
<path d="M0 0 C1.875 1.1875 1.875 1.1875 3 3 C3.53723414 5.68085156 3.77575623 8.26422601 4 11 C0.75 11.3125 0.75 11.3125 -3 11 C-3.928125 9.7625 -3.928125 9.7625 -4.875 8.5 C-6.69969001 5.83272242 -6.69969001 5.83272242 -9.13671875 5.5625 C-13.74179355 5.33398183 -13.74179355 5.33398183 -17.71484375 7.34375 C-20.20771036 10.55644132 -20.33978292 13.96408219 -20.28125 17.9296875 C-19.80882542 21.40725731 -18.31098491 23.43917889 -16 26 C-12.96545394 27.24494197 -11.47891547 27.12251326 -8.3125 26.3125 C-5.69720287 24.82814217 -5.01940388 23.7801924 -4 21 C-1.36 21 1.28 21 4 21 C3.76175067 28.02835518 3.76175067 28.02835518 1.73828125 30.609375 C-3.74551895 35.30582857 -9.09028166 35.4574378 -16 35 C-21.0653973 33.92847365 -23.684387 31.96031552 -27 28 C-29.02186909 23.97035149 -29.29789959 20.54482726 -29.3125 16.0625 C-29.32925781 14.87785156 -29.34601563 13.69320312 -29.36328125 12.47265625 C-28.86528304 7.71222171 -27.16563012 4.44698912 -24.1875 0.75 C-16.98517303 -5.01186158 -7.68497535 -4.14988669 0 0 Z " fill="#F8FAFC" transform="translate(305,231)"/>
<path d="M0 0 C3.26060084 2.2748378 4.36834449 4.15032562 5.6875 7.875 C5.3575 8.865 5.0275 9.855 4.6875 10.875 C2.3775 10.875 0.0675 10.875 -2.3125 10.875 C-2.3125 9.885 -2.3125 8.895 -2.3125 7.875 C-3.76992463 7.79403197 -5.22862807 7.73582226 -6.6875 7.6875 C-7.90566406 7.63529297 -7.90566406 7.63529297 -9.1484375 7.58203125 C-9.86257812 7.67871094 -10.57671875 7.77539062 -11.3125 7.875 C-12.3025 9.36 -12.3025 9.36 -13.3125 10.875 C-12.6525 10.875 -11.9925 10.875 -11.3125 10.875 C-11.3125 11.535 -11.3125 12.195 -11.3125 12.875 C-10.3225 12.978125 -9.3325 13.08125 -8.3125 13.1875 C-3.00752436 13.97462037 2.03149475 15.01199409 5.6875 19.125 C7.31426299 23.59859823 7.34327412 27.17770227 5.625 31.625 C2.61844782 35.11647995 -0.79675708 36.56948283 -5.37109375 37.125 C-10.76292298 37.2880799 -14.32045429 36.32865497 -18.625 33.1875 C-20.9326736 30.02513247 -20.60612074 27.69206964 -20.3125 23.875 C-18.0025 23.875 -15.6925 23.875 -13.3125 23.875 C-13.126875 24.514375 -12.94125 25.15375 -12.75 25.8125 C-11.38108528 28.27663626 -11.38108528 28.27663626 -7.8125 28.625 C-5.98193757 28.75575446 -4.1477263 28.875 -2.3125 28.875 C-2.3125 26.895 -2.3125 24.915 -2.3125 22.875 C-3.116875 22.771875 -3.92125 22.66875 -4.75 22.5625 C-15.85661765 20.41911765 -15.85661765 20.41911765 -19.375 16.6875 C-20.86700586 12.21148242 -20.8771118 8.19618183 -19.75 3.5625 C-14.82260529 -2.22183292 -6.65679512 -2.26079834 0 0 Z " fill="#F8FAFC" transform="translate(196.3125,229.125)"/>
<path d="M0 0 C2.05078125 0.03255208 4.1015625 0.06510417 6.15234375 0.09765625 C9.56021055 7.86366039 12.55576157 15.75885001 15.46484375 23.72265625 C15.82642578 24.7070166 16.18800781 25.69137695 16.56054688 26.70556641 C17.06424805 28.09461182 17.06424805 28.09461182 17.578125 29.51171875 C17.88145752 30.34654785 18.18479004 31.18137695 18.49731445 32.04150391 C19.15234375 34.09765625 19.15234375 34.09765625 19.15234375 36.09765625 C13.09765625 36.29296875 13.09765625 36.29296875 11.15234375 36.09765625 C9.15234375 34.09765625 9.15234375 34.09765625 8.15234375 30.09765625 C3.86234375 29.76765625 -0.42765625 29.43765625 -4.84765625 29.09765625 C-5.17765625 30.41765625 -5.50765625 31.73765625 -5.84765625 33.09765625 C-6.17765625 34.08765625 -6.50765625 35.07765625 -6.84765625 36.09765625 C-9.48765625 36.09765625 -12.12765625 36.09765625 -14.84765625 36.09765625 C-14.27791802 29.81327093 -12.27965005 24.44369431 -9.97265625 18.59765625 C-9.62074219 17.68628906 -9.26882813 16.77492187 -8.90625 15.8359375 C-2.81705081 0.14889275 -2.81705081 0.14889275 0 0 Z M1.15234375 11.09765625 C0.64866618 12.55472351 0.14951819 14.01335721 -0.34765625 15.47265625 C-0.62609375 16.28476563 -0.90453125 17.096875 -1.19140625 17.93359375 C-1.9443893 20.03974867 -1.9443893 20.03974867 -1.84765625 22.09765625 C0.46234375 22.09765625 2.77234375 22.09765625 5.15234375 22.09765625 C4.60128466 18.14839945 3.76299004 14.74845451 2.15234375 11.09765625 C1.82234375 11.09765625 1.49234375 11.09765625 1.15234375 11.09765625 Z " fill="#F8FAFC" transform="translate(361.84765625,228.90234375)"/>
<path d="M0 0 C1.00023193 0.00523682 2.00046387 0.01047363 3.03100586 0.01586914 C4.1105957 0.0190918 5.19018555 0.02231445 6.30249023 0.02563477 C8.00695312 0.03820312 8.00695312 0.03820312 9.74584961 0.05102539 C11.45611328 0.05779297 11.45611328 0.05779297 13.20092773 0.06469727 C16.02845312 0.07652792 18.85587601 0.09301129 21.68334961 0.11352539 C21.68334961 2.42352539 21.68334961 4.73352539 21.68334961 7.11352539 C16.07334961 7.11352539 10.46334961 7.11352539 4.68334961 7.11352539 C4.68334961 9.42352539 4.68334961 11.73352539 4.68334961 14.11352539 C5.68237305 14.10192383 6.68139648 14.09032227 7.71069336 14.07836914 C9.00104492 14.0693457 10.29139648 14.06032227 11.62084961 14.05102539 C12.90862305 14.03942383 14.19639648 14.02782227 15.52319336 14.01586914 C18.68334961 14.11352539 18.68334961 14.11352539 19.68334961 15.11352539 C19.68334961 17.09352539 19.68334961 19.07352539 19.68334961 21.11352539 C15.06334961 21.44352539 10.44334961 21.77352539 5.68334961 22.11352539 C5.68334961 24.09352539 5.68334961 26.07352539 5.68334961 28.11352539 C10.96334961 28.44352539 16.24334961 28.77352539 21.68334961 29.11352539 C21.68334961 31.42352539 21.68334961 33.73352539 21.68334961 36.11352539 C13.43334961 36.11352539 5.18334961 36.11352539 -3.31665039 36.11352539 C-3.33955995 31.14724105 -3.35948682 26.18113876 -3.37158203 21.21484375 C-3.37662229 19.52408224 -3.38345444 17.8333251 -3.39208984 16.14257812 C-3.40416896 13.71751832 -3.40988162 11.29251595 -3.41430664 8.86743164 C-3.41946793 8.10701065 -3.42462921 7.34658966 -3.4299469 6.56312561 C-3.43014277 4.74619969 -3.37862316 2.92939412 -3.31665039 1.11352539 C-2.31665039 0.11352539 -2.31665039 0.11352539 0 0 Z " fill="#F8FAFC" transform="translate(413.316650390625,228.886474609375)"/>
<path d="M0 0 C-0.54511636 4.59941929 -2.46436084 7.42842955 -5 11.25 C-9.95454842 19.19503415 -10.17754399 26.83429166 -10 36 C-16.15234375 36.09765625 -16.15234375 36.09765625 -18 36 C-18.33 35.67 -18.66 35.34 -19 35 C-19 32.8125 -19 30.625 -19 28.4375 C-19.24372208 20.0622302 -22.66467412 14.30060185 -27.06640625 7.36328125 C-29 4 -29 4 -29 0 C-26.36 0 -23.72 0 -21 0 C-19.02 3.63 -17.04 7.26 -15 11 C-11.94280874 7.94280874 -10.75811437 5.59971018 -9.0625 1.7421875 C-6.80706444 -1.95606346 -3.62408479 -0.88153414 0 0 Z " fill="#F8FAFC" transform="translate(234,229)"/>
<path d="M0 0 C8.58 0 17.16 0 26 0 C27 5 27 5 26 7 C23.03 7 20.06 7 17 7 C17 16.57 17 26.14 17 36 C14.36 36 11.72 36 9 36 C9 26.43 9 16.86 9 7 C6.03 7 3.06 7 0 7 C-1.125 2.25 -1.125 2.25 0 0 Z " fill="#F8FAFC" transform="translate(380,229)"/>
<path d="M0 0 C2.80397849 1.40198925 4.65504014 2.46688022 6.375 5.125 C7.26780634 9.23190918 7.08421494 12.93608944 6 17 C3.9375 19.5625 3.9375 19.5625 2 21 C3.54269924 25.72065967 5.07794619 30.41664092 7 35 C4.03 35 1.06 35 -2 35 C-2.37511719 34.21753906 -2.75023437 33.43507813 -3.13671875 32.62890625 C-3.64847656 31.61699219 -4.16023438 30.60507812 -4.6875 29.5625 C-5.43580078 28.04849609 -5.43580078 28.04849609 -6.19921875 26.50390625 C-7.99214184 23.41087373 -7.99214184 23.41087373 -13 23 C-13 26.96 -13 30.92 -13 35 C-13.33 35 -13.66 35 -14 35 C-14 30.71 -14 26.42 -14 22 C-12.68 21.34 -11.36 20.68 -10 20 C-9.67 19.34 -9.34 18.68 -9 18 C-9.33 17.67 -9.66 17.34 -10 17 C-10 16.67 -10 16.34 -10 16 C-7.69 15.34 -5.38 14.68 -3 14 C-2.79029441 9.85906302 -2.79029441 9.85906302 -4 6 C-3.1028125 6.495 -3.1028125 6.495 -2.1875 7 C0.05386471 8.20787988 0.05386471 8.20787988 3 8 C2.505 7.05125 2.01 6.1025 1.5 5.125 C0 2 0 2 0 0 Z " fill="#F8FAFC" transform="translate(336,230)"/>
<path d="M0 0 C2.4375 2.8125 2.4375 2.8125 4 6 C3.75 8.375 3.75 8.375 3 10 C2.01 9.67 1.02 9.34 0 9 C0.99 10.32 1.98 11.64 3 13 C1.68 13 0.36 13 -1 13 C-1 20.59 -1 28.18 -1 36 C-3.31 36 -5.62 36 -8 36 C-8 24.12 -8 12.24 -8 0 C-4.9637583 -1.51812085 -3.20988224 -0.96296467 0 0 Z " fill="#F8FAFC" transform="translate(248,229)"/>
<path d="M0 0 C1.94505138 2.91757707 2.98249076 5.40715618 4.1640625 8.69140625 C4.56367188 9.80064453 4.96328125 10.90988281 5.375 12.05273438 C5.7875 13.21095703 6.2 14.36917969 6.625 15.5625 C7.04523438 16.72458984 7.46546875 17.88667969 7.8984375 19.08398438 C11 27.73915635 11 27.73915635 11 30 C4.9453125 30.1953125 4.9453125 30.1953125 3 30 C1 28 1 28 0.625 26 C0.19582643 23.80357334 0.19582643 23.80357334 -2 22.9375 C-2.66 22.628125 -3.32 22.31875 -4 22 C-4.33 21.01 -4.66 20.02 -5 19 C-4.67 18.34 -4.34 17.68 -4 17 C-6.31 17 -8.62 17 -11 17 C-10.505 15.515 -10.505 15.515 -10 14 C-10 14.66 -10 15.32 -10 16 C-7.69 16 -5.38 16 -3 16 C-3.66 13.03 -4.32 10.06 -5 7 C-4.34 7 -3.68 7 -3 7 C-2.67 6.01 -2.34 5.02 -2 4 C-1.34 4 -0.68 4 0 4 C0 2.68 0 1.36 0 0 Z " fill="#F8FAFC" transform="translate(370,235)"/>
<path d="M0 0 C1.875 1.1875 1.875 1.1875 3 3 C3.53723414 5.68085156 3.77575623 8.26422601 4 11 C0.75 11.3125 0.75 11.3125 -3 11 C-3.928125 9.7625 -3.928125 9.7625 -4.875 8.5 C-6.69969001 5.83272242 -6.69969001 5.83272242 -9.13671875 5.5625 C-13.72334946 5.31761547 -13.72334946 5.31761547 -17.65234375 7.34375 C-19.18186501 9.17000985 -19.18186501 9.17000985 -21 12 C-21 11.34 -21 10.68 -21 10 C-22.32 9.34 -23.64 8.68 -25 8 C-24.360625 7.401875 -23.72125 6.80375 -23.0625 6.1875 C-20.79689611 4.09189663 -20.79689611 4.09189663 -20 1 C-21.32 1.33 -22.64 1.66 -24 2 C-24 1.34 -24 0.68 -24 0 C-15.4061373 -3.75004918 -8.42007771 -4.54684196 0 0 Z " fill="#F8FAFC" transform="translate(305,231)"/>
<path d="M0 0 C2.64 0 5.28 0 8 0 C9.20865372 2.03150276 10.39105566 4.07218325 11.5625 6.125 C12.22378906 7.26195312 12.88507813 8.39890625 13.56640625 9.5703125 C15.15136232 13.36211475 15.23699533 15.12216347 14 19 C13.34 19.33 12.68 19.66 12 20 C11.68758629 22.54941373 11.48696579 25.00361513 11.375 27.5625 C11.31699219 28.62887695 11.31699219 28.62887695 11.2578125 29.71679688 C11.16328217 31.47742425 11.08054183 33.23867728 11 35 C10.67 35 10.34 35 10 35 C10.03222656 34.1028125 10.06445312 33.205625 10.09765625 32.28125 C10.00357584 22.16237943 7.32157788 15.85435513 1.93359375 7.36328125 C0 4 0 4 0 0 Z " fill="#F8FAFC" transform="translate(205,229)"/>
<path d="M0 0 C2.31 0 4.62 0 7 0 C7.185625 0.639375 7.37125 1.27875 7.5625 1.9375 C8.91500744 4.37186567 8.91500744 4.37186567 12.3125 4.75 C15.2299285 4.94779176 18.0790816 5.08851268 21 5 C20.40138258 7.35171131 19.73075648 9.6859378 19 12 C15.0756508 13.9621746 10.37311804 13.37448674 6.25 12.25 C3.5235979 10.73533217 1.85055992 9.53595248 0 7 C-0.25 3.25 -0.25 3.25 0 0 Z " fill="#F8FAFC" transform="translate(176,253)"/>
<path d="M0 0 C3.26060084 2.2748378 4.36834449 4.15032562 5.6875 7.875 C5.3575 8.865 5.0275 9.855 4.6875 10.875 C2.3775 10.875 0.0675 10.875 -2.3125 10.875 C-2.3125 9.885 -2.3125 8.895 -2.3125 7.875 C-5.6125 7.875 -8.9125 7.875 -12.3125 7.875 C-12.3125 5.54166667 -12.3125 3.20833333 -12.3125 0.875 C-14.26466435 2.82716435 -15.16076645 4.40699953 -16.3125 6.875 C-17.3025 6.545 -18.2925 6.215 -19.3125 5.875 C-19.25 4.0625 -19.25 4.0625 -18.3125 1.875 C-12.1853307 -1.6262396 -6.81211091 -2.3135471 0 0 Z " fill="#F8FAFC" transform="translate(196.3125,229.125)"/>
<path d="M0 0 C0.36923077 4.55384615 0.36923077 4.55384615 -1.5 6.8125 C-1.995 7.204375 -2.49 7.59625 -3 8 C-2.34 8.33 -1.68 8.66 -1 9 C-1.34813084 19.09579439 -1.34813084 19.09579439 -3.9375 22.6875 C-6 24 -6 24 -8 24 C-9.45500399 21.08999203 -9.20897384 18.4910667 -9.25 15.25 C-9.27578125 14.03828125 -9.3015625 12.8265625 -9.328125 11.578125 C-8.96920476 7.66418522 -8.07557707 5.31704373 -6 2 C-3 0 -3 0 0 0 Z " fill="#F8FAFC" transform="translate(285,232)"/>
<path d="M0 0 C0 0.99 0 1.98 0 3 C-0.66 3 -1.32 3 -2 3 C-2 3.66 -2 4.32 -2 5 C-3.98260426 6.68732277 -5.9832342 8.35366057 -8 10 C-8.33 10.66 -8.66 11.32 -9 12 C-9.66 12 -10.32 12 -11 12 C-11 12.66 -11 13.32 -11 14 C-11.66 14 -12.32 14 -13 14 C-13 14.66 -13 15.32 -13 16 C-13.66 16 -14.32 16 -15 16 C-15.33 16.66 -15.66 17.32 -16 18 C-16 16.68 -16 15.36 -16 14 C-15.34 14 -14.68 14 -14 14 C-14.20625 13.401875 -14.4125 12.80375 -14.625 12.1875 C-15 10 -15 10 -13 7 C-13 6.34 -13 5.68 -13 5 C-13.66 5 -14.32 5 -15 5 C-14.67 4.01 -14.34 3.02 -14 2 C-17.3 1.67 -20.6 1.34 -24 1 C-24 0.67 -24 0.34 -24 0 C-21.1253509 -0.19586184 -18.25061717 -0.38193799 -15.375 -0.5625 C-14.16263672 -0.64661133 -14.16263672 -0.64661133 -12.92578125 -0.73242188 C-8.43837484 -1.00604422 -4.43137501 -0.96801881 0 0 Z " fill="#F8FAFC" transform="translate(144,188)"/>
<path d="M0 0 C2.21209728 2.69599356 4.12845843 5.49650611 6 8.4375 C5.690625 9.015 5.38125 9.5925 5.0625 10.1875 C4.07070809 12.28776522 3.52511261 14.18701737 3 16.4375 C2.67 17.0975 2.34 17.7575 2 18.4375 C-0.31 14.8075 -2.62 11.1775 -5 7.4375 C-5.33 13.7075 -5.66 19.9775 -6 26.4375 C-6.33 26.4375 -6.66 26.4375 -7 26.4375 C-7 18.8475 -7 11.2575 -7 3.4375 C-6.34 3.1075 -5.68 2.7775 -5 2.4375 C-5.33 1.4475 -5.66 0.4575 -6 -0.5625 C-3.20991759 -1.7582496 -2.45742699 -1.91986483 0 0 Z " fill="#F8FAFC" transform="translate(254,238.5625)"/>
<path d="M0 0 C7.92 0 15.84 0 24 0 C24 1.65 24 3.3 24 5 C20.7 5 17.4 5 14 5 C13.67 6.65 13.34 8.3 13 10 C12.78601563 9.35546875 12.57203125 8.7109375 12.3515625 8.046875 C11.1526477 5.72160885 11.1526477 5.72160885 8.3984375 5.390625 C7.40070313 5.34421875 6.40296875 5.2978125 5.375 5.25 C3.87066406 5.16492188 3.87066406 5.16492188 2.3359375 5.078125 C1.56507813 5.05234375 0.79421875 5.0265625 0 5 C0 3.35 0 1.7 0 0 Z " fill="#F8FAFC" transform="translate(381,230)"/>
<path d="M0 0 C1.23402862 4.77092956 1.11265112 9.42469446 1.0625 14.3125 C1.05798828 15.14845703 1.05347656 15.98441406 1.04882812 16.84570312 C1.03710548 18.89716649 1.01917203 20.94859273 1 23 C-0.98 23 -2.96 23 -5 23 C-5.0868329 19.541824 -5.14033282 16.08392656 -5.1875 12.625 C-5.21263672 11.64015625 -5.23777344 10.6553125 -5.26367188 9.640625 C-5.27333984 8.69960937 -5.28300781 7.75859375 -5.29296875 6.7890625 C-5.3086792 5.91975098 -5.32438965 5.05043945 -5.34057617 4.15478516 C-5.22818604 3.44370605 -5.1157959 2.73262695 -5 2 C-2 0 -2 0 0 0 Z " fill="#F8FAFC" transform="translate(246,242)"/>
<path d="M0 0 C0.66 0.33 1.32 0.66 2 1 C1.67 1.66 1.34 2.32 1 3 C0.34 3 -0.32 3 -1 3 C-1.12375 3.9075 -1.2475 4.815 -1.375 5.75 C-1.93236531 8.6482996 -2.5690083 10.47472054 -4 13 C-4.66 14.32 -5.32 15.64 -6 17 C-2.04 17.33 1.92 17.66 6 18 C6 18.33 6 18.66 6 19 C-0.93 19 -7.86 19 -15 19 C-15 15 -15 15 -13.5390625 13.078125 C-12.90742187 12.47484375 -12.27578125 11.8715625 -11.625 11.25 C-10.99851562 10.63640625 -10.37203125 10.0228125 -9.7265625 9.390625 C-8 8 -8 8 -6 8 C-6 7.34 -6 6.68 -6 6 C-5.34 6 -4.68 6 -4 6 C-4 5.34 -4 4.68 -4 4 C-3.34 4 -2.68 4 -2 4 C-2 3.34 -2 2.68 -2 2 C-1.34 2 -0.68 2 0 2 C0 1.34 0 0.68 0 0 Z " fill="#F8FAFC" transform="translate(100,283)"/>
<path d="M0 0 C1.00023193 0.00523682 2.00046387 0.01047363 3.03100586 0.01586914 C4.1105957 0.0190918 5.19018555 0.02231445 6.30249023 0.02563477 C8.00695312 0.03820312 8.00695312 0.03820312 9.74584961 0.05102539 C11.45611328 0.05779297 11.45611328 0.05779297 13.20092773 0.06469727 C16.02845312 0.07652792 18.85587601 0.09301129 21.68334961 0.11352539 C21.68334961 2.42352539 21.68334961 4.73352539 21.68334961 7.11352539 C16.07334961 7.11352539 10.46334961 7.11352539 4.68334961 7.11352539 C4.68334961 6.78352539 4.68334961 6.45352539 4.68334961 6.11352539 C9.96334961 6.11352539 15.24334961 6.11352539 20.68334961 6.11352539 C20.68334961 4.46352539 20.68334961 2.81352539 20.68334961 1.11352539 C10.28834961 1.60852539 10.28834961 1.60852539 -0.31665039 2.11352539 C-0.64665039 13.33352539 -0.97665039 24.55352539 -1.31665039 36.11352539 C-1.97665039 36.11352539 -2.63665039 36.11352539 -3.31665039 36.11352539 C-3.34130137 31.1473019 -3.35948688 26.18111373 -3.37158203 21.21484375 C-3.37662229 19.52408224 -3.38345444 17.8333251 -3.39208984 16.14257812 C-3.40416896 13.71751832 -3.40988162 11.29251595 -3.41430664 8.86743164 C-3.41946793 8.10701065 -3.42462921 7.34658966 -3.4299469 6.56312561 C-3.43014277 4.74619969 -3.37862316 2.92939412 -3.31665039 1.11352539 C-2.31665039 0.11352539 -2.31665039 0.11352539 0 0 Z " fill="#F8FAFC" transform="translate(413.316650390625,228.886474609375)"/>
<path d="M0 0 C1.24546405 2.49092811 0.7767578 3.41080733 0 6 C0.66 6 1.32 6 2 6 C2 6.66 2 7.32 2 8 C2.99 8.33 3.98 8.66 5 9 C5 9.66 5 10.32 5 11 C6.98 11 8.96 11 11 11 C11 11.33 11 11.66 11 12 C8.69 12 6.38 12 4 12 C3.7834375 12.8971875 3.7834375 12.8971875 3.5625 13.8125 C3.1127561 15.56150404 2.57107659 17.28677023 2 19 C-0.64 19 -3.28 19 -6 19 C-5.52877252 12.0886636 -2.79363994 6.27795839 0 0 Z " fill="#F8FAFC" transform="translate(353,246)"/>
<path d="M0 0 C0.33 0 0.66 0 1 0 C1.16435547 1.01320312 1.16435547 1.01320312 1.33203125 2.046875 C1.49058594 2.93890625 1.64914062 3.8309375 1.8125 4.75 C1.96332031 5.63171875 2.11414063 6.5134375 2.26953125 7.421875 C3.47306413 11.6696381 5.35883164 13.57255442 9 16 C8.21625 16.144375 7.4325 16.28875 6.625 16.4375 C4.03578982 16.87798925 4.03578982 16.87798925 2 18 C2 18.66 2 19.32 2 20 C2.99 20.33 3.98 20.66 5 21 C5 20.34 5 19.68 5 19 C5.99 19 6.98 19 8 19 C8 19.66 8 20.32 8 21 C10.31 21.33 12.62 21.66 15 22 C15 22.33 15 22.66 15 23 C8.00070022 23.27997199 2.73934105 23.21478638 -2.9375 18.625 C-5 16 -5 16 -5 13.875 C-4 12 -4 12 -2.48046875 10.67578125 C-0.58637697 8.53180928 -0.51701923 7.13486544 -0.3125 4.3125 C-0.24675781 3.50425781 -0.18101562 2.69601563 -0.11328125 1.86328125 C-0.07589844 1.24839844 -0.03851563 0.63351563 0 0 Z " fill="#F8FAFC" transform="translate(283,243)"/>
<path d="M0 0 C8.58 0 17.16 0 26 0 C27 5 27 5 26 7 C23.03 7 20.06 7 17 7 C17 16.57 17 26.14 17 36 C16.67 36 16.34 36 16 36 C16 26.1 16 16.2 16 6 C18.97 6 21.94 6 25 6 C25 4.35 25 2.7 25 1 C17.08 1 9.16 1 1 1 C1.33 2.32 1.66 3.64 2 5 C4.31 5.33 6.62 5.66 9 6 C9 6.33 9 6.66 9 7 C6.03 7 3.06 7 0 7 C-1.125 2.25 -1.125 2.25 0 0 Z " fill="#F8FAFC" transform="translate(380,229)"/>
<path d="M0 0 C1.32 0.33 2.64 0.66 4 1 C3.67 3.31 3.34 5.62 3 8 C5.31 8 7.62 8 10 8 C9.67 9.32 9.34 10.64 9 12 C9.66 12.33 10.32 12.66 11 13 C7.45026831 14.1832439 5.60040463 13.90010116 2 13 C0.125 11.5625 0.125 11.5625 -1 10 C-1 9.34 -1 8.68 -1 8 C-1.66 8 -2.32 8 -3 8 C-2.625 5.0625 -2.625 5.0625 -2 2 C-1.34 1.67 -0.68 1.34 0 1 C0 0.67 0 0.34 0 0 Z " fill="#F8FAFC" transform="translate(356,244)"/>
<path d="M0 0 C0.144375 0.598125 0.28875 1.19625 0.4375 1.8125 C0.8872439 3.56150404 1.42892341 5.28677023 2 7 C2.66 7 3.32 7 4 7 C4 6.34 4 5.68 4 5 C5.32 5.33 6.64 5.66 8 6 C7.48659616 9.79918838 6.7920132 11.43134786 4 14 C2.82425289 16.09989652 2.82425289 16.09989652 2 18 C1.34 16.35 0.68 14.7 0 13 C-0.99 14.485 -0.99 14.485 -2 16 C-2.66 15.67 -3.32 15.34 -4 15 C-3.32584613 9.7415998 -1.75734451 4.97361654 0 0 Z " fill="#F8FAFC" transform="translate(358,231)"/>
<path d="M0 0 C2.31243792 -0.02685412 4.6249627 -0.04632841 6.9375 -0.0625 C8.22527344 -0.07410156 9.51304687 -0.08570313 10.83984375 -0.09765625 C14 0 14 0 15 1 C15 2.98 15 4.96 15 7 C11.04 7 7.08 7 3 7 C3.33 5.02 3.66 3.04 4 1 C2.68 0.67 1.36 0.34 0 0 Z " fill="#F8FAFC" transform="translate(418,243)"/>
<path d="M0 0 C-0.57665391 4.7871428 -2.64082996 8.25128824 -5.0625 12.3125 C-5.62807617 13.28026367 -5.62807617 13.28026367 -6.20507812 14.26757812 C-7.13037493 15.84878152 -8.06432681 17.4249146 -9 19 C-9.33 18.34 -9.66 17.68 -10 17 C-10.66 16.67 -11.32 16.34 -12 16 C-10.68 15.67 -9.36 15.34 -8 15 C-8.33 14.01 -8.66 13.02 -9 12 C-7.5625 8.8125 -7.5625 8.8125 -6 6 C-6.66 5.67 -7.32 5.34 -8 5 C-8.625 2.9375 -8.625 2.9375 -9 1 C-5.64919071 -1.10976881 -3.77897651 -1.0497157 0 0 Z " fill="#F8FAFC" transform="translate(234,229)"/>
<path d="M0 0 C0 0.33 0 0.66 0 1 C-2.31 1.33 -4.62 1.66 -7 2 C-7.33 3.32 -7.66 4.64 -8 6 C-5.03 6.495 -5.03 6.495 -2 7 C-2 7.33 -2 7.66 -2 8 C-3.093125 8.103125 -4.18625 8.20625 -5.3125 8.3125 C-9.4259383 9.06864184 -9.4259383 9.06864184 -12 12 C-12.99 13.485 -12.99 13.485 -14 15 C-14 14.34 -14 13.68 -14 13 C-15.32 12.34 -16.64 11.68 -18 11 C-17.360625 10.401875 -16.72125 9.80375 -16.0625 9.1875 C-13.79689611 7.09189663 -13.79689611 7.09189663 -13 4 C-14.32 4.33 -15.64 4.66 -17 5 C-17 4.34 -17 3.68 -17 3 C-11.06108578 0.4084738 -6.45892714 -0.40368295 0 0 Z " fill="#F8FAFC" transform="translate(298,228)"/>
<path d="M0 0 C1.258125 -0.020625 2.51625 -0.04125 3.8125 -0.0625 C4.52019531 -0.07410156 5.22789062 -0.08570313 5.95703125 -0.09765625 C8 0 8 0 11 1 C12.1875 3.5625 12.1875 3.5625 13 6 C12.67 6.33 12.34 6.66 12 7 C9.80949979 6.90982004 7.621534 6.75333792 5.4375 6.5625 C4.23996094 6.46066406 3.04242188 6.35882813 1.80859375 6.25390625 C0.88175781 6.17011719 -0.04507812 6.08632812 -1 6 C-0.67 4.02 -0.34 2.04 0 0 Z " fill="#F8FAFC" transform="translate(290,229)"/>
<path d="M0 0 C2.88097207 1.44048603 4.677055 2.47154455 6.375 5.25 C7.16797803 8.73910335 6.68337475 11.51478877 6 15 C3.37886292 15 1.49064888 14.68707555 -1 14 C-1 12.02 -1 10.04 -1 8 C0.32 8 1.64 8 3 8 C2.505 7.05125 2.01 6.1025 1.5 5.125 C0 2 0 2 0 0 Z " fill="#F8FAFC" transform="translate(336,230)"/>
<path d="M0 0 C2.31 0.66 4.62 1.32 7 2 C7.33 1.67 7.66 1.34 8 1 C9.67542976 1.28604898 11.34385343 1.61781233 13 2 C12.34 3.65 11.68 5.3 11 7 C8.36 7 5.72 7 3 7 C3.33 6.01 3.66 5.02 4 4 C3.01 4 2.02 4 1 4 C1 4.66 1 5.32 1 6 C-0.32 5.67 -1.64 5.34 -3 5 C-2 2 -2 2 0 0 Z " fill="#F8FAFC" transform="translate(287,258)"/>
<path d="M0 0 C1.32 0.33 2.64 0.66 4 1 C3.63705624 3.63134223 3.29936233 4.74340372 1.25 6.5 C0.5075 6.995 -0.235 7.49 -1 8 C-1.845625 8.721875 -2.69125 9.44375 -3.5625 10.1875 C-6 12 -6 12 -9 12 C-9.33 12.66 -9.66 13.32 -10 14 C-9.67 12.35 -9.34 10.7 -9 9 C-8.34 9 -7.68 9 -7 9 C-7 8.34 -7 7.68 -7 7 C-5.625 5.375 -5.625 5.375 -4 4 C-3.34 4 -2.68 4 -2 4 C-2 3.34 -2 2.68 -2 2 C-1.34 2 -0.68 2 0 2 C0 1.34 0 0.68 0 0 Z " fill="#F8FAFC" transform="translate(76,231)"/>
<path d="M0 0 C5.57552338 -0.28838914 9.17362578 -0.178344 14 3 C14.33 3.99 14.66 4.98 15 6 C14.01 6.99 13.02 7.98 12 9 C11.566875 8.525625 11.13375 8.05125 10.6875 7.5625 C8.97690387 5.76313043 8.97690387 5.76313043 6 5 C5.34 4.34 4.68 3.68 4 3 C3.01 3.66 2.02 4.32 1 5 C0.67 3.35 0.34 1.7 0 0 Z " fill="#F8FAFC" transform="translate(185,228)"/>
<path d="M0 0 C2.49523027 2.92918336 3.60563569 5.15494802 4 9 C3 12 3 12 1 13 C0.68758629 15.54941373 0.48696579 18.00361513 0.375 20.5625 C0.33632812 21.27341797 0.29765625 21.98433594 0.2578125 22.71679688 C0.16328217 24.47742425 0.08054183 26.23867728 0 28 C-0.33 28 -0.66 28 -1 28 C-1.06058594 26.96359375 -1.12117187 25.9271875 -1.18359375 24.859375 C-1.26803371 23.48957127 -1.35267997 22.11978025 -1.4375 20.75 C-1.47681641 20.06808594 -1.51613281 19.38617188 -1.55664062 18.68359375 C-1.76666472 15.35551959 -2.01934002 12.19744598 -3 9 C-2.34 9 -1.68 9 -1 9 C-0.67 6.03 -0.34 3.06 0 0 Z " fill="#F8FAFC" transform="translate(216,236)"/>
<path d="M0 0 C2.3125 -0.3125 2.3125 -0.3125 5 0 C6.81883009 2.3832946 8 3.95818337 8 7 C8.66 7.33 9.32 7.66 10 8 C9.34 8 8.68 8 8 8 C7.67 8.66 7.34 9.32 7 10 C4.36 8.02 1.72 6.04 -1 4 C-0.67 2.68 -0.34 1.36 0 0 Z " fill="#F8FAFC" transform="translate(331,230)"/>
<path d="M0 0 C2.31 0 4.62 0 7 0 C7.66 1.65 8.32 3.3 9 5 C7.68 5 6.36 5 5 5 C5 5.66 5 6.32 5 7 C4.34 7 3.68 7 3 7 C2.67 7.66 2.34 8.32 2 9 C0 7 0 7 -0.125 3.375 C-0.08375 2.26125 -0.0425 1.1475 0 0 Z " fill="#F8FAFC" transform="translate(176,253)"/>
<path d="M0 0 C0.66 0.33 1.32 0.66 2 1 C1.25 4.375 1.25 4.375 0 8 C-2.0625 9.25 -2.0625 9.25 -4 10 C-4.33 10.99 -4.66 11.98 -5 13 C-5.99 12.67 -6.98 12.34 -8 12 C-7.84595887 6.91664275 -4.97931568 4.64245282 -1.49609375 1.35546875 C-1.00238281 0.90816406 -0.50867188 0.46085938 0 0 Z " fill="#F8FAFC" transform="translate(135,250)"/>
<path d="M0 0 C2.45823172 3.68734758 3.01242616 6.69699971 4 11 C3.195625 10.814375 2.39125 10.62875 1.5625 10.4375 C0.716875 10.293125 -0.12875 10.14875 -1 10 C-2.29633621 11.06645115 -2.29633621 11.06645115 -2.0625 13.5625 C-2.041875 14.366875 -2.02125 15.17125 -2 16 C-3.64826111 13.03312999 -4.44271087 10.34373475 -5 7 C-4.34 7 -3.68 7 -3 7 C-2.67 6.01 -2.34 5.02 -2 4 C-1.34 4 -0.68 4 0 4 C0 2.68 0 1.36 0 0 Z " fill="#F8FAFC" transform="translate(370,235)"/>
<path d="M0 0 C1.45903258 0.30921884 2.91720722 0.62248799 4.375 0.9375 C5.18710938 1.11152344 5.99921875 1.28554687 6.8359375 1.46484375 C9 2 9 2 11 3 C10.67 3.66 10.34 4.32 10 5 C7.4375 5.625 7.4375 5.625 5 6 C5 6.99 5 7.98 5 9 C2.03 8.505 2.03 8.505 -1 8 C-0.505 7.21625 -0.01 6.4325 0.5 5.625 C2.16537965 3.21447673 2.16537965 3.21447673 2 1 C1.34 0.67 0.68 0.34 0 0 Z " fill="#F8FAFC" transform="translate(189,243)"/>
<path d="M0 0 C2.475 0.99 2.475 0.99 5 2 C4.690625 2.5775 4.38125 3.155 4.0625 3.75 C3.07070809 5.85026522 2.52511261 7.74951737 2 10 C1.67 10.66 1.34 11.32 1 12 C-0.65 9.69 -2.3 7.38 -4 5 C-2.93453047 2.86906094 -1.70840281 1.63412443 0 0 Z " fill="#F8FAFC" transform="translate(255,245)"/>
<path d="M0 0 C0.99 0.33 1.98 0.66 3 1 C3 3.31 3 5.62 3 8 C5.31 8.33 7.62 8.66 10 9 C8.63016497 12.16115776 8.0109362 12.9927092 5 15 C4.67 14.01 4.34 13.02 4 12 C2.00334686 10.31461399 2.00334686 10.31461399 0 9 C0.33 8.67 0.66 8.34 1 8 C1.24733137 3.85723125 1.24733137 3.85723125 0 0 Z " fill="#F8FAFC" transform="translate(332,236)"/>
<path d="M0 0 C5.56818182 0.56818182 5.56818182 0.56818182 7 2 C7.14115161 4.67058851 7.04247107 7.32432238 7 10 C6.34 9.67 5.68 9.34 5 9 C5 7.68 5 6.36 5 5 C3.02 5 1.04 5 -1 5 C-1.33 4.01 -1.66 3.02 -2 2 C-1.34 1.34 -0.68 0.68 0 0 Z " fill="#F8FAFC" transform="translate(195,247)"/>
<path d="M0 0 C8.25 0 16.5 0 25 0 C25 0.33 25 0.66 25 1 C17.08 1 9.16 1 1 1 C1.33 2.32 1.66 3.64 2 5 C4.31 5.33 6.62 5.66 9 6 C9 6.33 9 6.66 9 7 C6.03 7 3.06 7 0 7 C-1.125 2.25 -1.125 2.25 0 0 Z " fill="#F8FAFC" transform="translate(380,229)"/>
<path d="M0 0 C2.64 0 5.28 0 8 0 C7.67 1.32 7.34 2.64 7 4 C7 3.01 7 2.02 7 1 C4.52372901 1.63921965 4.52372901 1.63921965 2 3 C0.63921965 5.52372901 0.63921965 5.52372901 0 8 C-0.78375 7.95875 -1.5675 7.9175 -2.375 7.875 C-5.16116119 7.71271266 -5.16116119 7.71271266 -7 10 C-7 9.34 -7 8.68 -7 8 C-7.66 7.67 -8.32 7.34 -9 7 C-7.88625 6.5875 -6.7725 6.175 -5.625 5.75 C-3.00679305 4.64453484 -2.16506911 4.25119213 -0.5625 1.8125 C-0.376875 1.214375 -0.19125 0.61625 0 0 Z " fill="#F8FAFC" transform="translate(301,252)"/>
<path d="M0 0 C2.625 0.375 2.625 0.375 5 1 C5.125 7.625 5.125 7.625 4 11 C3.34 11 2.68 11 2 11 C2.33 8.69 2.66 6.38 3 4 C1.68 4.33 0.36 4.66 -1 5 C-1.33 4.01 -1.66 3.02 -2 2 C-1.34 1.34 -0.68 0.68 0 0 Z " fill="#F8FAFC" transform="translate(211,234)"/>
<path d="M0 0 C0.66 0 1.32 0 2 0 C2.33 0.99 2.66 1.98 3 3 C4.65 3.33 6.3 3.66 8 4 C8 4.33 8 4.66 8 5 C6.02 5 4.04 5 2 5 C2 5.66 2 6.32 2 7 C0.68 6.34 -0.64 5.68 -2 5 C-1.34 3.35 -0.68 1.7 0 0 Z M-5 5 C-3.02 5.99 -3.02 5.99 -1 7 C-1.99 7.495 -1.99 7.495 -3 8 C-3.33 8.66 -3.66 9.32 -4 10 C-4.33 8.35 -4.66 6.7 -5 5 Z " fill="#F8FAFC" transform="translate(182,230)"/>
<path d="M0 0 C0.45375 0.474375 0.9075 0.94875 1.375 1.4375 C2.93258204 3.09027808 2.93258204 3.09027808 5 4 C5 4.99 5 5.98 5 7 C4.34 7 3.68 7 3 7 C3 7.66 3 8.32 3 9 C2.01 9.33 1.02 9.66 0 10 C-0.38922918 8.71254964 -0.76098036 7.41980403 -1.125 6.125 C-1.43824219 5.04605469 -1.43824219 5.04605469 -1.7578125 3.9453125 C-1.83773438 3.30335938 -1.91765625 2.66140625 -2 2 C-1.34 1.34 -0.68 0.68 0 0 Z " fill="#F8FAFC" transform="translate(369,242)"/>
<path d="M0 0 C0 0.99 0 1.98 0 3 C-0.66 3 -1.32 3 -2 3 C-2 3.66 -2 4.32 -2 5 C-2.66 4.67 -3.32 4.34 -4 4 C-3.67 3.01 -3.34 2.02 -3 1 C-9.93 1 -16.86 1 -24 1 C-24 0.67 -24 0.34 -24 0 C-21.1253509 -0.19586184 -18.25061717 -0.38193799 -15.375 -0.5625 C-14.16263672 -0.64661133 -14.16263672 -0.64661133 -12.92578125 -0.73242188 C-8.43837484 -1.00604422 -4.43137501 -0.96801881 0 0 Z " fill="#F8FAFC" transform="translate(144,188)"/>
<path d="M0 0 C0.99 0.33 1.98 0.66 3 1 C3.6875 3.0625 3.6875 3.0625 4 5 C3.34 5 2.68 5 2 5 C2.33 6.98 2.66 8.96 3 11 C-1.76058041 5.47158404 -1.76058041 5.47158404 -2 2 C-1.34 1.34 -0.68 0.68 0 0 Z " fill="#F8FAFC" transform="translate(258,252)"/>
<path d="M0 0 C2.31 0 4.62 0 7 0 C5.60667426 3.36720387 4.0210714 4.9859524 1 7 C0.34 6.34 -0.32 5.68 -1 5 C-0.625 2.375 -0.625 2.375 0 0 Z " fill="#F8FAFC" transform="translate(359,230)"/>
<path d="M0 0 C0.66 0.33 1.32 0.66 2 1 C2.3125 3.75 2.3125 3.75 2 7 C-0.5 9.375 -0.5 9.375 -3 11 C-3.33 9.35 -3.66 7.7 -4 6 C-3.01 6 -2.02 6 -1 6 C-0.67 4.02 -0.34 2.04 0 0 Z " fill="#F8FAFC" transform="translate(159,241)"/>
<path d="M0 0 C0.66 0.33 1.32 0.66 2 1 C1.67 1.99 1.34 2.98 1 4 C6.61 4 12.22 4 18 4 C18 4.33 18 4.66 18 5 C11.07 5 4.14 5 -3 5 C-2.01 3.35 -1.02 1.7 0 0 Z " fill="#F8FAFC" transform="translate(113,233)"/>
<path d="M0 0 C0.99 0.66 1.98 1.32 3 2 C3 6 3 6 1.625 7.75 C0 9 0 9 -2 9 C-2.25 3.375 -2.25 3.375 0 0 Z " fill="#F8FAFC" transform="translate(367,233)"/>
<path d="M0 0 C0.5775 0.763125 1.155 1.52625 1.75 2.3125 C3.71703093 4.66200917 5.48476744 6.29323505 8 8 C7.21625 8.144375 6.4325 8.28875 5.625 8.4375 C3.03578982 8.87798925 3.03578982 8.87798925 1 10 C-0.125 6.25 -0.125 6.25 1 4 C0.34 3.67 -0.32 3.34 -1 3 C-0.67 2.01 -0.34 1.02 0 0 Z " fill="#F8FAFC" transform="translate(284,251)"/>
<path d="M0 0 C0.33 1.32 0.66 2.64 1 4 C-1.64 4 -4.28 4 -7 4 C-7 3.01 -7 2.02 -7 1 C-4.53721199 -0.231394 -2.7204945 -0.07159196 0 0 Z " fill="#F8FAFC" transform="translate(380,261)"/>
<path d="M0 0 C0.66 0.33 1.32 0.66 2 1 C1.67 2.98 1.34 4.96 1 7 C0.01 7.33 -0.98 7.66 -2 8 C-2.6875 6.25 -2.6875 6.25 -3 4 C-1.5625 1.75 -1.5625 1.75 0 0 Z " fill="#F8FAFC" transform="translate(181,238)"/>
<path d="M0 0 C0.66 1.32 1.32 2.64 2 4 C2.99 4 3.98 4 5 4 C3.68 5.65 2.36 7.3 1 9 C0 8 0 8 -0.09765625 6.15234375 C-0.06510417 4.1015625 -0.03255208 2.05078125 0 0 Z M4 1 C5.98 1.99 5.98 1.99 8 3 C7.01 3 6.02 3 5 3 C4.67 2.34 4.34 1.68 4 1 Z " fill="#F8FAFC" transform="translate(176,235)"/>
<path d="M0 0 C0.66 0 1.32 0 2 0 C2 0.66 2 1.32 2 2 C3.32 1.34 4.64 0.68 6 0 C7 2 7 2 6.0625 5.125 C5.711875 6.07375 5.36125 7.0225 5 8 C2.27573689 5.64722731 1.1858237 3.37503669 0 0 Z " fill="#F8FAFC" transform="translate(208,237)"/>
<path d="M0 0 C0 0.66 0 1.32 0 2 C-5.35714286 7 -5.35714286 7 -9 7 C-9 6.34 -9 5.68 -9 5 C-8.34 5 -7.68 5 -7 5 C-7 4.34 -7 3.68 -7 3 C-6.34 3 -5.68 3 -5 3 C-5 2.34 -5 1.68 -5 1 C-3 0 -3 0 0 0 Z " fill="#F8FAFC" transform="translate(126,224)"/>
<path d="M0 0 C0.598125 0.165 1.19625 0.33 1.8125 0.5 C4.11344336 1.1114124 4.11344336 1.1114124 7 1 C7 1.99 7 2.98 7 4 C4.69 4 2.38 4 0 4 C0 2.68 0 1.36 0 0 Z " fill="#F8FAFC" transform="translate(301,237)"/>
<path d="M0 0 C0 1.32 0 2.64 0 4 C-2.64 4 -5.28 4 -8 4 C-6.4425489 0.88509781 -3.40085499 0 0 0 Z " fill="#F8FAFC" transform="translate(355,261)"/>
<path d="M0 0 C0.66 0.33 1.32 0.66 2 1 C1.67 1.66 1.34 2.32 1 3 C0.34 3 -0.32 3 -1 3 C-1.33 4.32 -1.66 5.64 -2 7 C-3.32 7.33 -4.64 7.66 -6 8 C-6 7.34 -6 6.68 -6 6 C-5.34 6 -4.68 6 -4 6 C-4 5.34 -4 4.68 -4 4 C-3.34 4 -2.68 4 -2 4 C-2 3.34 -2 2.68 -2 2 C-1.34 2 -0.68 2 0 2 C0 1.34 0 0.68 0 0 Z " fill="#F8FAFC" transform="translate(100,283)"/>
<path d="M0 0 C0.66 0 1.32 0 2 0 C1.814375 0.598125 1.62875 1.19625 1.4375 1.8125 C0.77906313 4.16408762 0.77906313 4.16408762 2 7 C1.01 7.495 1.01 7.495 0 8 C-0.66 7.67 -1.32 7.34 -2 7 C-2 5.35 -2 3.7 -2 2 C-1.34 2 -0.68 2 0 2 C0 1.34 0 0.68 0 0 Z " fill="#F8FAFC" transform="translate(252,241)"/>
<path d="M0 0 C0.33 0.66 0.66 1.32 1 2 C0.0625 4.125 0.0625 4.125 -1 6 C-1.99 6 -2.98 6 -4 6 C-4.33 6.66 -4.66 7.32 -5 8 C-4.67 6.35 -4.34 4.7 -4 3 C-3.34 3 -2.68 3 -2 3 C-2 2.34 -2 1.68 -2 1 C-1.34 0.67 -0.68 0.34 0 0 Z " fill="#F8FAFC" transform="translate(71,237)"/>
<path d="M0 0 C2.4375 1.1875 2.4375 1.1875 5 3 C5.8125 5.6875 5.8125 5.6875 6 8 C2.24623848 6.74874616 1.75926711 5.4347596 0 2 C0 1.34 0 0.68 0 0 Z " fill="#F8FAFC" transform="translate(336,230)"/>
<path d="M0 0 C0.99 0 1.98 0 3 0 C3 0.66 3 1.32 3 2 C5.31 2.33 7.62 2.66 10 3 C10 3.33 10 3.66 10 4 C8.5629191 4.05422947 7.12524538 4.09289723 5.6875 4.125 C4.88699219 4.14820313 4.08648437 4.17140625 3.26171875 4.1953125 C1 4 1 4 -2 2 C-1.34 2 -0.68 2 0 2 C0 1.34 0 0.68 0 0 Z " fill="#F8FAFC" transform="translate(288,262)"/>
<path d="M0 0 C0.66 1.65 1.32 3.3 2 5 C1.01 4.67 0.02 4.34 -1 4 C-1.33 4.66 -1.66 5.32 -2 6 C-2.99 5.01 -3.98 4.02 -5 3 C-2.25 0 -2.25 0 0 0 Z " fill="#F8FAFC" transform="translate(256,241)"/>
<path d="M0 0 C2.15377564 2.62198774 3.40072174 4.64404172 4 8 C2.35 7.67 0.7 7.34 -1 7 C-0.67 4.69 -0.34 2.38 0 0 Z " fill="#F8FAFC" transform="translate(216,236)"/>
<path d="M0 0 C-0.33 0.99 -0.66 1.98 -1 3 C-1 2.34 -1 1.68 -1 1 C-3.64 1.99 -6.28 2.98 -9 4 C-8.67 2.68 -8.34 1.36 -8 0 C-4.71023192 -1.09658936 -3.28696233 -0.79953138 0 0 Z " fill="#F8FAFC" transform="translate(234,229)"/>
<path d="M0 0 C-0.33 1.98 -0.66 3.96 -1 6 C-1.33 5.34 -1.66 4.68 -2 4 C-4.01669827 2.86649466 -4.01669827 2.86649466 -6 2 C-3 0 -3 0 0 0 Z " fill="#F8FAFC" transform="translate(286,237)"/>
<path d="M0 0 C0.66 0.33 1.32 0.66 2 1 C1.3125 3.4375 1.3125 3.4375 0 6 C-2.625 6.8125 -2.625 6.8125 -5 7 C-3.35 4.69 -1.7 2.38 0 0 Z " fill="#F8FAFC" transform="translate(102,205)"/>
<path d="M0 0 C1.98 0 3.96 0 6 0 C5.67 0.99 5.34 1.98 5 3 C3.68 2.67 2.36 2.34 1 2 C0.67 2.99 0.34 3.98 0 5 C0 3.35 0 1.7 0 0 Z " fill="#F8FAFC" transform="translate(263,229)"/>
<path d="" fill="#F8FAFC" transform="translate(0,0)"/>
<path d="" fill="#F8FAFC" transform="translate(0,0)"/>
<path d="" fill="#F8FAFC" transform="translate(0,0)"/>
<path d="" fill="#F8FAFC" transform="translate(0,0)"/>
<path d="" fill="#F8FAFC" transform="translate(0,0)"/>
<path d="" fill="#F8FAFC" transform="translate(0,0)"/>
<path d="" fill="#F8FAFC" transform="translate(0,0)"/>
<path d="" fill="#F8FAFC" transform="translate(0,0)"/>
<path d="" fill="#F8FAFC" transform="translate(0,0)"/>
<path d="" fill="#F8FAFC" transform="translate(0,0)"/>
<path d="" fill="#F8FAFC" transform="translate(0,0)"/>
<path d="" fill="#F8FAFC" transform="translate(0,0)"/>
<path d="" fill="#F8FAFC" transform="translate(0,0)"/>
<path d="" fill="#F8FAFC" transform="translate(0,0)"/>
<path d="" fill="#F8FAFC" transform="translate(0,0)"/>
<path d="" fill="#F8FAFC" transform="translate(0,0)"/>
<path d="" fill="#F8FAFC" transform="translate(0,0)"/>
<path d="" fill="#F8FAFC" transform="translate(0,0)"/>
<path d="" fill="#F8FAFC" transform="translate(0,0)"/>
<path d="" fill="#F8FAFC" transform="translate(0,0)"/>
<path d="" fill="#F8FAFC" transform="translate(0,0)"/>
<path d="" fill="#F8FAFC" transform="translate(0,0)"/>
<path d="" fill="#F8FAFC" transform="translate(0,0)"/>
<path d="" fill="#F8FAFC" transform="translate(0,0)"/>
<path d="" fill="#F8FAFC" transform="translate(0,0)"/>
<path d="" fill="#F8FAFC" transform="translate(0,0)"/>
<path d="" fill="#F8FAFC" transform="translate(0,0)"/>
<path d="" fill="#F8FAFC" transform="translate(0,0)"/>
<path d="" fill="#F8FAFC" transform="translate(0,0)"/>
<path d="" fill="#F8FAFC" transform="translate(0,0)"/>
<path d="" fill="#F8FAFC" transform="translate(0,0)"/>
<path d="" fill="#F8FAFC" transform="translate(0,0)"/>
<path d="" fill="#F8FAFC" transform="translate(0,0)"/>
<path d="" fill="#F8FAFC" transform="translate(0,0)"/>
<path d="" fill="#F8FAFC" transform="translate(0,0)"/>
<path d="" fill="#F8FAFC" transform="translate(0,0)"/>
<path d="" fill="#F8FAFC" transform="translate(0,0)"/>
<path d="" fill="#F8FAFC" transform="translate(0,0)"/>
<path d="" fill="#F8FAFC" transform="translate(0,0)"/>
<path d="" fill="#F8FAFC" transform="translate(0,0)"/>
<path d="" fill="#F8FAFC" transform="translate(0,0)"/>
<path d="" fill="#F8FAFC" transform="translate(0,0)"/>
<path d="" fill="#F8FAFC" transform="translate(0,0)"/>
<path d="" fill="#F8FAFC" transform="translate(0,0)"/>
<path d="" fill="#F8FAFC" transform="translate(0,0)"/>
<path d="" fill="#F8FAFC" transform="translate(0,0)"/>
<path d="" fill="#F8FAFC" transform="translate(0,0)"/>
<path d="" fill="#F8FAFC" transform="translate(0,0)"/>
<path d="" fill="#F8FAFC" transform="translate(0,0)"/>
<path d="" fill="#F8FAFC" transform="translate(0,0)"/>
<path d="" fill="#F8FAFC" transform="translate(0,0)"/>
<path d="" fill="#F8FAFC" transform="translate(0,0)"/>
<path d="" fill="#F8FAFC" transform="translate(0,0)"/>
<path d="" fill="#F8FAFC" transform="translate(0,0)"/>
<path d="" fill="#F8FAFC" transform="translate(0,0)"/>
<path d="" fill="#F8FAFC" transform="translate(0,0)"/>
<path d="" fill="#F8FAFC" transform="translate(0,0)"/>
<path d="" fill="#F8FAFC" transform="translate(0,0)"/>
<path d="" fill="#F8FAFC" transform="translate(0,0)"/>
<path d="" fill="#F8FAFC" transform="translate(0,0)"/>
<path d="" fill="#F8FAFC" transform="translate(0,0)"/>
<path d="" fill="#F8FAFC" transform="translate(0,0)"/>
<path d="" fill="#F8FAFC" transform="translate(0,0)"/>
<path d="" fill="#F8FAFC" transform="translate(0,0)"/>
<path d="" fill="#F8FAFC" transform="translate(0,0)"/>
<path d="" fill="#F8FAFC" transform="translate(0,0)"/>
<path d="" fill="#F8FAFC" transform="translate(0,0)"/>
<path d="" fill="#F8FAFC" transform="translate(0,0)"/>
<path d="" fill="#F8FAFC" transform="translate(0,0)"/>
<path d="" fill="#F8FAFC" transform="translate(0,0)"/>
<path d="" fill="#F8FAFC" transform="translate(0,0)"/>
<path d="" fill="#F8FAFC" transform="translate(0,0)"/>
<path d="" fill="#F8FAFC" transform="translate(0,0)"/>
<path d="" fill="#F8FAFC" transform="translate(0,0)"/>
<path d="" fill="#F8FAFC" transform="translate(0,0)"/>
<path d="" fill="#F8FAFC" transform="translate(0,0)"/>
<path d="" fill="#F8FAFC" transform="translate(0,0)"/>
<path d="" fill="#F8FAFC" transform="translate(0,0)"/>
<path d="" fill="#F8FAFC" transform="translate(0,0)"/>
<path d="" fill="#F8FAFC" transform="translate(0,0)"/>
<path d="" fill="#F8FAFC" transform="translate(0,0)"/>
<path d="" fill="#F8FAFC" transform="translate(0,0)"/>
<path d="" fill="#F8FAFC" transform="translate(0,0)"/>
<path d="" fill="#F8FAFC" transform="translate(0,0)"/>
<path d="" fill="#F8FAFC" transform="translate(0,0)"/>
<path d="" fill="#F8FAFC" transform="translate(0,0)"/>
<path d="" fill="#F8FAFC" transform="translate(0,0)"/>
<path d="" fill="#F8FAFC" transform="translate(0,0)"/>
<path d="" fill="#F8FAFC" transform="translate(0,0)"/>
<path d="" fill="#F8FAFC" transform="translate(0,0)"/>
<path d="" fill="#F8FAFC" transform="translate(0,0)"/>
<path d="" fill="#F8FAFC" transform="translate(0,0)"/>
<path d="" fill="#F8FAFC" transform="translate(0,0)"/>
<path d="" fill="#F8FAFC" transform="translate(0,0)"/>
</svg>
